<svg width="360" height="156" viewBox="0 0 360 156" fill="none" xmlns="http://www.w3.org/2000/svg">
<g filter="url(#filter0_d_158_262)">
<g filter="url(#filter1_d_158_262)">
<path d="M107 142C87.1177 142 71 125.882 71 106L71 -1H143V106C143 125.882 126.882 142 107 142Z" fill="#FBFDF7"/>
<path d="M107 140C88.2223 140 73 124.778 73 106L73 1H141V106C141 124.778 125.778 140 107 140Z" stroke="#FBFDF7" stroke-width="4"/>
</g>
<g filter="url(#filter2_d_158_262)">
<path d="M179 142C159.118 142 143 125.882 143 106V-1H215V106C215 125.882 198.882 142 179 142Z" fill="#B6D9C9"/>
<path d="M179 140C160.222 140 145 124.778 145 106V1H213V106C213 124.778 197.778 140 179 140Z" stroke="#B6D9C9" stroke-width="4"/>
</g>
<g filter="url(#filter3_d_158_262)">
<path d="M251 142C231.118 142 215 125.882 215 106V-1H287V106C287 125.882 270.882 142 251 142Z" fill="#FBFDF7"/>
<path d="M251 140C232.222 140 217 124.778 217 106V1H285V106C285 124.778 269.778 140 251 140Z" stroke="#FBFDF7" stroke-width="4"/>
</g>
<g filter="url(#filter4_d_158_262)">
<path d="M323 142C303.118 142 287 125.882 287 106V-1H359V106C359 125.882 342.882 142 323 142Z" fill="#B6D9C9"/>
<path d="M323 140C304.222 140 289 124.778 289 106V1H357V106C357 124.778 341.778 140 323 140Z" stroke="#B6D9C9" stroke-width="4"/>
</g>
<g filter="url(#filter5_d_158_262)">
<path d="M35 142C15.1177 142 -1 125.882 -1 106L-1 -1H71L71 106C71 125.882 54.8822 142 35 142Z" fill="#B6D9C9"/>
</g>
</g>
<g filter="url(#filter6_d_158_262)">
<path d="M94.352 81.216C94.352 83.7547 93.792 85.696 92.672 87.04C91.552 88.3467 89.928 89 87.8 89C85.784 89 84.216 88.4027 83.096 87.208C81.976 85.976 81.416 83.904 81.416 80.992V57.36C81.416 56.1653 81.5653 55.1387 81.864 54.28C82.2 53.384 82.6667 52.6747 83.264 52.152C83.8613 51.6293 84.5333 51.256 85.28 51.032C86.0267 50.7707 86.8667 50.64 87.8 50.64H106.168C108.333 50.64 109.939 50.976 110.984 51.648C112.067 52.32 112.608 53.5333 112.608 55.288C112.608 56.9307 112.141 58.088 111.208 58.76C110.312 59.3947 108.819 59.712 106.728 59.712H94.352V66.264H104.208C105.216 66.264 106.056 66.3387 106.728 66.488C107.437 66.6373 107.997 66.8987 108.408 67.272C108.856 67.608 109.155 68.0373 109.304 68.56C109.491 69.0453 109.584 69.68 109.584 70.464C109.584 71.7333 109.117 72.648 108.184 73.208C107.251 73.7307 105.757 73.992 103.704 73.992H94.352V81.216ZM137.838 61.784C137.838 59.992 137.184 58.76 135.878 58.088C134.571 57.416 132.368 57.08 129.27 57.08V66.768C132.182 66.768 134.328 66.4133 135.71 65.704C137.128 64.9573 137.838 63.6507 137.838 61.784ZM129.27 80.6C129.27 86.2 127.086 89 122.718 89C120.515 89 118.891 88.4213 117.846 87.264C116.838 86.0693 116.334 83.9787 116.334 80.992V57.36C116.334 55.1947 116.912 53.552 118.07 52.432C119.264 51.2747 120.814 50.696 122.718 50.696H134.478C139.07 50.696 142.784 51.7787 145.622 53.944C148.459 56.072 149.878 58.816 149.878 62.176C149.878 64.7147 149.336 66.712 148.254 68.168C147.208 69.5867 145.51 70.632 143.158 71.304C144.95 71.416 146.611 72.2933 148.142 73.936C149.672 75.5413 150.438 77.5573 150.438 79.984C150.438 82.448 150.195 84.352 149.71 85.696C149.262 87.0027 148.608 87.88 147.75 88.328C146.891 88.776 145.678 89 144.11 89C141.907 89 140.283 88.552 139.238 87.656C138.23 86.7227 137.726 85.3227 137.726 83.456C137.726 81.1413 137.502 79.368 137.054 78.136C136.606 76.8667 136.027 76.0453 135.318 75.672C134.608 75.2987 133.619 75.112 132.35 75.112L129.27 75.168V80.6ZM173.85 81.16C175.119 81.16 176.202 80.6 177.098 79.48C178.031 78.36 178.685 76.9787 179.058 75.336C179.469 73.6933 179.674 71.9387 179.674 70.072C179.674 68.168 179.469 66.376 179.058 64.696C178.647 62.9787 177.975 61.5227 177.042 60.328C176.146 59.1333 175.082 58.536 173.85 58.536C172.655 58.536 171.61 59.1333 170.714 60.328C169.818 61.5227 169.146 62.9787 168.698 64.696C168.25 66.4133 168.026 68.2053 168.026 70.072C168.026 71.9387 168.231 73.6933 168.642 75.336C169.09 76.9787 169.762 78.36 170.658 79.48C171.591 80.6 172.655 81.16 173.85 81.16ZM183.762 87.152C180.813 88.608 177.49 89.336 173.794 89.336C170.135 89.336 166.831 88.608 163.882 87.152C160.97 85.6587 158.637 83.4373 156.882 80.488C155.127 77.5387 154.25 74.0667 154.25 70.072C154.25 64.024 156.061 59.2267 159.682 55.68C163.341 52.096 168.063 50.304 173.85 50.304C179.637 50.304 184.359 52.096 188.018 55.68C191.677 59.2267 193.506 64.024 193.506 70.072C193.506 74.0667 192.61 77.5387 190.818 80.488C189.063 83.4373 186.711 85.6587 183.762 87.152ZM217.793 81.16C219.062 81.16 220.145 80.6 221.041 79.48C221.974 78.36 222.627 76.9787 223.001 75.336C223.411 73.6933 223.617 71.9387 223.617 70.072C223.617 68.168 223.411 66.376 223.001 64.696C222.59 62.9787 221.918 61.5227 220.985 60.328C220.089 59.1333 219.025 58.536 217.793 58.536C216.598 58.536 215.553 59.1333 214.657 60.328C213.761 61.5227 213.089 62.9787 212.641 64.696C212.193 66.4133 211.969 68.2053 211.969 70.072C211.969 71.9387 212.174 73.6933 212.585 75.336C213.033 76.9787 213.705 78.36 214.601 79.48C215.534 80.6 216.598 81.16 217.793 81.16ZM227.705 87.152C224.755 88.608 221.433 89.336 217.737 89.336C214.078 89.336 210.774 88.608 207.825 87.152C204.913 85.6587 202.579 83.4373 200.825 80.488C199.07 77.5387 198.193 74.0667 198.193 70.072C198.193 64.024 200.003 59.2267 203.625 55.68C207.283 52.096 212.006 50.304 217.793 50.304C223.579 50.304 228.302 52.096 231.961 55.68C235.619 59.2267 237.449 64.024 237.449 70.072C237.449 74.0667 236.553 77.5387 234.761 80.488C233.006 83.4373 230.654 85.6587 227.705 87.152ZM255.967 81.384C256.938 81.384 257.778 81.2907 258.487 81.104C259.234 80.88 259.924 80.5067 260.559 79.984C261.231 79.424 261.772 78.696 262.183 77.8C262.594 76.904 262.911 75.7653 263.135 74.384C263.396 72.9653 263.527 71.304 263.527 69.4C263.527 67.272 263.34 65.48 262.967 64.024C262.594 62.5307 262.052 61.4107 261.343 60.664C260.634 59.88 259.85 59.3387 258.991 59.04C258.17 58.704 257.162 58.5173 255.967 58.48V81.384ZM257.647 50.696C263.471 50.696 268.138 52.376 271.647 55.736C275.194 59.096 276.967 63.7253 276.967 69.624C276.967 71.528 276.78 73.376 276.407 75.168C276.071 76.96 275.492 78.7147 274.671 80.432C273.85 82.112 272.823 83.5867 271.591 84.856C270.359 86.088 268.791 87.096 266.887 87.88C264.983 88.6267 262.836 89 260.447 89H249.415C247.138 89 245.495 88.4213 244.487 87.264C243.516 86.1067 243.031 84.016 243.031 80.992V57.36C243.031 52.9173 245.159 50.696 249.415 50.696H257.647Z" fill="#B6D9C9"/>
<path d="M92.672 87.04L95.709 89.6432L95.7271 89.6221L95.7449 89.6007L92.672 87.04ZM83.096 87.208L80.1362 89.8987L80.1569 89.9214L80.1779 89.9438L83.096 87.208ZM81.864 54.28L78.1187 52.8755L78.1018 52.9205L78.086 52.9659L81.864 54.28ZM85.28 51.032L86.4294 54.8633L86.516 54.8373L86.6014 54.8074L85.28 51.032ZM110.984 51.648L108.821 55.0127L108.848 55.0298L108.875 55.0466L110.984 51.648ZM111.208 58.76L113.52 62.0241L113.533 62.0152L113.545 62.0061L111.208 58.76ZM94.352 59.712V55.712H90.352V59.712H94.352ZM94.352 66.264H90.352V70.264H94.352V66.264ZM106.728 66.488L105.86 70.3927L105.882 70.3976L105.904 70.4022L106.728 66.488ZM108.408 67.272L105.717 70.2318L105.857 70.3587L106.008 70.472L108.408 67.272ZM109.304 68.56L105.458 69.6589L105.507 69.8299L105.571 69.9959L109.304 68.56ZM108.184 73.208L110.138 76.698L110.191 76.6688L110.242 76.638L108.184 73.208ZM94.352 73.992V69.992H90.352V73.992H94.352ZM90.352 81.216C90.352 83.2307 89.9008 84.1172 89.5991 84.4793L95.7449 89.6007C97.6832 87.2748 98.352 84.2787 98.352 81.216H90.352ZM89.635 84.4368C89.4507 84.6518 89.0606 85 87.8 85V93C90.7955 93 93.6533 92.0415 95.709 89.6432L89.635 84.4368ZM87.8 85C86.6156 85 86.209 84.6801 86.0141 84.4722L80.1779 89.9438C82.223 92.1253 84.9524 93 87.8 93V85ZM86.0558 84.5173C85.9533 84.4046 85.416 83.5893 85.416 80.992H77.416C77.416 84.2187 77.9987 87.5474 80.1362 89.8987L86.0558 84.5173ZM85.416 80.992V57.36H77.416V80.992H85.416ZM85.416 57.36C85.416 56.4803 85.5283 55.921 85.642 55.5941L78.086 52.9659C77.6024 54.3563 77.416 55.8504 77.416 57.36H85.416ZM85.6093 55.6845C85.7607 55.2809 85.8907 55.1687 85.898 55.1623L80.63 49.1417C79.4427 50.1806 78.6393 51.4871 78.1187 52.8755L85.6093 55.6845ZM85.898 55.1623C86.0729 55.0093 86.2408 54.9199 86.4294 54.8633L84.1306 47.2007C82.8259 47.5921 81.6497 48.2494 80.63 49.1417L85.898 55.1623ZM86.6014 54.8074C86.8547 54.7188 87.2377 54.64 87.8 54.64V46.64C86.4957 46.64 85.1986 46.8226 83.9586 47.2566L86.6014 54.8074ZM87.8 54.64H106.168V46.64H87.8V54.64ZM106.168 54.64C107.057 54.64 107.713 54.7102 108.177 54.8072C108.404 54.8547 108.565 54.9047 108.673 54.9458C108.781 54.9867 108.823 55.014 108.821 55.0127L113.147 48.2833C111.136 46.9905 108.6 46.64 106.168 46.64V54.64ZM108.875 55.0466C108.808 55.0055 108.733 54.9438 108.664 54.8641C108.596 54.7855 108.562 54.7198 108.549 54.6918C108.538 54.6672 108.553 54.6929 108.571 54.7912C108.59 54.8908 108.608 55.0521 108.608 55.288H116.608C116.608 52.7286 115.771 49.9116 113.093 48.2494L108.875 55.0466ZM108.608 55.288C108.608 55.5118 108.592 55.6694 108.575 55.7714C108.558 55.8727 108.542 55.9067 108.548 55.8921C108.555 55.8748 108.582 55.8144 108.644 55.734C108.707 55.6518 108.785 55.5753 108.871 55.5139L113.545 62.0061C115.922 60.2951 116.608 57.6305 116.608 55.288H108.608ZM108.896 55.4959C109.03 55.4012 108.993 55.4746 108.585 55.5614C108.19 55.6451 107.589 55.712 106.728 55.712V63.712C109.009 63.712 111.568 63.407 113.52 62.0241L108.896 55.4959ZM106.728 55.712H94.352V63.712H106.728V55.712ZM90.352 59.712V66.264H98.352V59.712H90.352ZM94.352 70.264H104.208V62.264H94.352V70.264ZM104.208 70.264C105.046 70.264 105.571 70.3285 105.86 70.3927L107.596 62.5833C106.541 62.3488 105.386 62.264 104.208 62.264V70.264ZM105.904 70.4022C106.125 70.4487 105.97 70.4619 105.717 70.2318L111.099 64.3122C110.024 63.3354 108.75 62.8259 107.552 62.5738L105.904 70.4022ZM106.008 70.472C105.915 70.402 105.796 70.29 105.684 70.1303C105.572 69.9693 105.499 69.8041 105.458 69.6589L113.15 67.4611C112.753 66.0722 111.932 64.9148 110.808 64.072L106.008 70.472ZM105.571 69.9959C105.537 69.9079 105.543 69.8918 105.557 69.982C105.569 70.0699 105.584 70.2257 105.584 70.464H113.584C113.584 69.4135 113.466 68.2386 113.037 67.1241L105.571 69.9959ZM105.584 70.464C105.584 70.6132 105.557 70.5072 105.671 70.2841C105.727 70.174 105.803 70.0646 105.896 69.9675C105.987 69.8716 106.071 69.8111 106.126 69.778L110.242 76.638C112.599 75.2235 113.584 72.8622 113.584 70.464H105.584ZM106.23 69.718C106.283 69.6881 106.147 69.7732 105.674 69.8559C105.219 69.9355 104.575 69.992 103.704 69.992V77.992C105.919 77.992 108.276 77.741 110.138 76.698L106.23 69.718ZM103.704 69.992H94.352V77.992H103.704V69.992ZM90.352 73.992V81.216H98.352V73.992H90.352ZM135.878 58.088L134.048 61.6451L135.878 58.088ZM129.27 57.08V53.08H125.27V57.08H129.27ZM129.27 66.768H125.27V70.768H129.27V66.768ZM135.71 65.704L137.537 69.2623L137.555 69.2531L137.573 69.2437L135.71 65.704ZM117.846 87.264L114.789 89.8435L114.832 89.8951L114.877 89.9451L117.846 87.264ZM118.07 52.432L120.851 55.3064L120.853 55.305L118.07 52.432ZM145.622 53.944L143.195 57.1238L143.208 57.134L143.222 57.144L145.622 53.944ZM148.254 68.168L145.044 65.7812L145.039 65.7882L145.034 65.7952L148.254 68.168ZM143.158 71.304L142.059 67.4579L142.908 75.2962L143.158 71.304ZM148.142 73.936L145.215 76.6629L145.231 76.6797L145.247 76.6963L148.142 73.936ZM149.71 85.696L145.948 84.3374L145.937 84.368L145.926 84.3987L149.71 85.696ZM147.75 88.328L149.6 91.8743L147.75 88.328ZM139.238 87.656L136.52 90.591L136.576 90.6431L136.635 90.693L139.238 87.656ZM137.054 78.136L133.282 79.4673L133.288 79.4852L133.295 79.503L137.054 78.136ZM135.318 75.672L133.455 79.2117H133.455L135.318 75.672ZM132.35 75.112V71.112H132.313L132.277 71.1127L132.35 75.112ZM129.27 75.168L129.197 71.1687L125.27 71.2401V75.168H129.27ZM141.838 61.784C141.838 58.8884 140.665 56.052 137.707 54.5308L134.048 61.6451C134.05 61.646 134.007 61.6235 133.948 61.5661C133.888 61.5074 133.842 61.4429 133.814 61.39C133.76 61.2876 133.838 61.3603 133.838 61.784H141.838ZM137.707 54.5308C135.49 53.3904 132.449 53.08 129.27 53.08V61.08C132.288 61.08 133.653 61.4416 134.048 61.6451L137.707 54.5308ZM125.27 57.08V66.768H133.27V57.08H125.27ZM129.27 70.768C132.353 70.768 135.287 70.4179 137.537 69.2623L133.883 62.1457C133.37 62.4088 132.01 62.768 129.27 62.768V70.768ZM137.573 69.2437C140.549 67.6775 141.838 64.8396 141.838 61.784H133.838C133.838 62.2179 133.756 62.3193 133.79 62.2556C133.807 62.2252 133.834 62.1892 133.863 62.1605C133.891 62.1336 133.895 62.139 133.847 62.1643L137.573 69.2437ZM125.27 80.6C125.27 82.99 124.785 84.046 124.478 84.4399C124.318 84.6448 123.983 85 122.718 85V93C125.82 93 128.762 91.9552 130.786 89.3601C132.663 86.954 133.27 83.81 133.27 80.6H125.27ZM122.718 85C121.167 85 120.83 84.6005 120.814 84.5829L114.877 89.9451C116.952 92.2421 119.863 93 122.718 93V85ZM120.903 84.6845C120.922 84.7066 120.758 84.5182 120.6 83.8626C120.445 83.217 120.334 82.2819 120.334 80.992H112.334C112.334 84.177 112.821 87.511 114.789 89.8435L120.903 84.6845ZM120.334 80.992V57.36H112.334V80.992H120.334ZM120.334 57.36C120.334 55.8918 120.713 55.4408 120.851 55.3064L115.288 49.5576C113.112 51.6632 112.334 54.4975 112.334 57.36H120.334ZM120.853 55.305C121.192 54.9761 121.69 54.696 122.718 54.696V46.696C119.937 46.696 117.336 47.5732 115.287 49.559L120.853 55.305ZM122.718 54.696H134.478V46.696H122.718V54.696ZM134.478 54.696C138.446 54.696 141.232 55.626 143.195 57.1238L148.048 50.7642C144.336 47.9314 139.694 46.696 134.478 46.696V54.696ZM143.222 57.144C145.117 58.5656 145.878 60.1545 145.878 62.176H153.878C153.878 57.4775 151.801 53.5784 148.022 50.744L143.222 57.144ZM145.878 62.176C145.878 64.1895 145.444 65.2425 145.044 65.7812L151.464 70.5548C153.228 68.1815 153.878 65.2399 153.878 62.176H145.878ZM145.034 65.7952C144.683 66.271 143.885 66.9363 142.059 67.4579L144.257 75.1501C147.135 74.3277 149.734 72.9023 151.474 70.5408L145.034 65.7952ZM142.908 75.2962C143.439 75.3294 144.199 75.5725 145.215 76.6629L151.068 71.2091C149.023 69.0142 146.46 67.5026 143.407 67.3118L142.908 75.2962ZM145.247 76.6963C145.998 77.4846 146.438 78.4797 146.438 79.984H154.438C154.438 76.635 153.346 73.598 151.037 71.1757L145.247 76.6963ZM146.438 79.984C146.438 82.2699 146.201 83.6344 145.948 84.3374L153.472 87.0546C154.189 85.0696 154.438 82.6261 154.438 79.984H146.438ZM145.926 84.3987C145.803 84.7585 145.7 84.9122 145.676 84.9449C145.666 84.958 145.678 84.9389 145.719 84.9035C145.76 84.867 145.821 84.8226 145.899 84.7817L149.6 91.8743C151.693 90.7826 152.855 88.8564 153.494 86.9933L145.926 84.3987ZM145.899 84.7817C145.905 84.7789 145.786 84.84 145.47 84.8985C145.156 84.9563 144.712 85 144.11 85V93C145.967 93 147.922 92.75 149.6 91.8743L145.899 84.7817ZM144.11 85C142.323 85 141.836 84.6151 141.841 84.619L136.635 90.693C138.73 92.4889 141.492 93 144.11 93V85ZM141.955 84.721C141.95 84.7161 141.944 84.7095 141.933 84.6933C141.922 84.6759 141.897 84.6331 141.867 84.5511C141.806 84.3804 141.726 84.0401 141.726 83.456H133.726C133.726 86.0216 134.433 88.6584 136.52 90.591L141.955 84.721ZM141.726 83.456C141.726 80.9754 141.498 78.6528 140.813 76.769L133.295 79.503C133.506 80.0832 133.726 81.3072 133.726 83.456H141.726ZM140.826 76.8047C140.255 75.1867 139.22 73.2055 137.181 72.1323L133.455 79.2117C133.125 79.0382 132.999 78.8504 133.014 78.8718C133.02 78.8812 133.053 78.9293 133.103 79.0312C133.153 79.1326 133.214 79.2752 133.282 79.4673L140.826 76.8047ZM137.181 72.1323C135.657 71.3302 133.928 71.112 132.35 71.112V79.112C132.797 79.112 133.105 79.1455 133.302 79.1826C133.501 79.2202 133.529 79.2508 133.455 79.2117L137.181 72.1323ZM132.277 71.1127L129.197 71.1687L129.342 79.1673L132.422 79.1113L132.277 71.1127ZM125.27 75.168V80.6H133.27V75.168H125.27ZM177.098 79.48L174.025 76.9193L174 76.95L173.975 76.9812L177.098 79.48ZM179.058 75.336L175.178 74.3659L175.167 74.4076L175.158 74.4495L179.058 75.336ZM179.058 64.696L175.168 65.6263L175.17 65.6361L175.173 65.6458L179.058 64.696ZM177.042 60.328L173.842 62.728L173.866 62.7595L173.89 62.7906L177.042 60.328ZM168.698 64.696L164.828 63.6863V63.6863L168.698 64.696ZM168.642 75.336L164.762 76.3061L164.772 76.3474L164.783 76.3885L168.642 75.336ZM170.658 79.48L167.535 81.9788L167.56 82.01L167.585 82.0407L170.658 79.48ZM183.762 87.152L185.533 90.7387L185.551 90.7298L185.569 90.7206L183.762 87.152ZM163.882 87.152L162.057 90.7113L162.084 90.7252L162.111 90.7387L163.882 87.152ZM156.882 80.488L160.32 78.4428L156.882 80.488ZM159.682 55.68L162.481 58.5377L162.481 58.5374L159.682 55.68ZM188.018 55.68L185.219 58.5374L185.226 58.5448L185.234 58.552L188.018 55.68ZM190.818 80.488L187.4 78.411L187.39 78.4268L187.381 78.4428L190.818 80.488ZM173.85 85.16C176.503 85.16 178.678 83.9081 180.222 81.9788L173.975 76.9812C173.816 77.1801 173.74 77.206 173.776 77.1871C173.792 77.179 173.816 77.1697 173.841 77.1638C173.865 77.158 173.871 77.16 173.85 77.16V85.16ZM180.171 82.0407C181.567 80.3655 182.467 78.3848 182.959 76.2225L175.158 74.4495C174.902 75.5725 174.496 76.3545 174.025 76.9193L180.171 82.0407ZM182.939 76.3061C183.436 74.3157 183.674 72.2327 183.674 70.072H175.674C175.674 71.6446 175.501 73.071 175.178 74.3659L182.939 76.3061ZM183.674 70.072C183.674 67.8798 183.438 65.7665 182.944 63.7462L175.173 65.6458C175.5 66.9855 175.674 68.4562 175.674 70.072H183.674ZM182.948 63.7657C182.426 61.5818 181.534 59.5805 180.194 57.8654L173.89 62.7906C174.417 63.4648 174.869 64.3755 175.168 65.6263L182.948 63.7657ZM180.242 57.928C178.77 55.9655 176.613 54.536 173.85 54.536V62.536C173.831 62.536 173.79 62.5333 173.736 62.5191C173.681 62.5049 173.639 62.4858 173.614 62.4719C173.565 62.4445 173.655 62.4785 173.842 62.728L180.242 57.928ZM173.85 54.536C171.084 54.536 168.956 56.0054 167.514 57.928L173.914 62.728C174.111 62.4656 174.205 62.4279 174.155 62.457C174.128 62.4723 174.079 62.4953 174.013 62.5129C173.946 62.5306 173.889 62.536 173.85 62.536V54.536ZM167.514 57.928C166.254 59.6086 165.383 61.5593 164.828 63.6863L172.569 65.7057C172.91 64.398 173.383 63.4367 173.914 62.728L167.514 57.928ZM164.828 63.6863C164.289 65.7499 164.026 67.8822 164.026 70.072H172.026C172.026 68.5284 172.211 67.0767 172.569 65.7057L164.828 63.6863ZM164.026 70.072C164.026 72.2327 164.264 74.3157 164.762 76.3061L172.523 74.3659C172.199 73.071 172.026 71.6446 172.026 70.072H164.026ZM164.783 76.3885C165.348 78.4614 166.24 80.3599 167.535 81.9788L173.782 76.9812C173.285 76.3601 172.832 75.496 172.501 74.2835L164.783 76.3885ZM167.585 82.0407C169.095 83.8522 171.208 85.16 173.85 85.16V77.16C173.867 77.16 173.9 77.1624 173.941 77.1726C173.982 77.1827 174.009 77.1952 174.019 77.2003C174.038 77.2102 173.932 77.1603 173.731 76.9193L167.585 82.0407ZM181.991 83.5653C179.658 84.7174 176.953 85.336 173.794 85.336V93.336C178.028 93.336 181.968 92.4986 185.533 90.7387L181.991 83.5653ZM173.794 85.336C170.68 85.336 167.992 84.7201 165.653 83.5653L162.111 90.7387C165.671 92.4959 169.591 93.336 173.794 93.336V85.336ZM165.707 83.5927C163.498 82.4596 161.71 80.7789 160.32 78.4428L153.445 82.5332C155.564 86.0957 158.442 88.8577 162.057 90.7113L165.707 83.5927ZM160.32 78.4428C158.99 76.2075 158.25 73.4664 158.25 70.072H150.25C150.25 74.667 151.265 78.8699 153.445 82.5332L160.32 78.4428ZM158.25 70.072C158.25 64.8758 159.774 61.1888 162.481 58.5377L156.883 52.8223C152.348 57.2645 150.25 63.1722 150.25 70.072H158.25ZM162.481 58.5374C165.293 55.783 168.962 54.304 173.85 54.304V46.304C167.165 46.304 161.389 48.409 156.883 52.8226L162.481 58.5374ZM173.85 54.304C178.738 54.304 182.407 55.783 185.219 58.5374L190.817 52.8226C186.312 48.409 180.536 46.304 173.85 46.304V54.304ZM185.234 58.552C187.972 61.2058 189.506 64.8881 189.506 70.072H197.506C197.506 63.1599 195.382 57.2476 190.802 52.808L185.234 58.552ZM189.506 70.072C189.506 73.4515 188.755 76.1809 187.4 78.411L194.237 82.565C196.466 78.8965 197.506 74.6819 197.506 70.072H189.506ZM187.381 78.4428C185.998 80.7661 184.201 82.4464 181.955 83.5834L185.569 90.7206C189.222 88.871 192.129 86.1086 194.256 82.5332L187.381 78.4428ZM221.041 79.48L217.968 76.9193L217.942 76.95L217.917 76.9812L221.041 79.48ZM223.001 75.336L219.12 74.3659L219.11 74.4076L219.1 74.4495L223.001 75.336ZM223.001 64.696L219.11 65.6263L219.113 65.6361L219.115 65.6458L223.001 64.696ZM220.985 60.328L217.785 62.728L217.808 62.7595L217.833 62.7906L220.985 60.328ZM212.641 64.696L208.77 63.6863V63.6863L212.641 64.696ZM212.585 75.336L208.704 76.3061L208.714 76.3474L208.726 76.3885L212.585 75.336ZM214.601 79.48L211.477 81.9788L211.502 82.01L211.528 82.0407L214.601 79.48ZM227.705 87.152L229.475 90.7387L229.493 90.7298L229.512 90.7206L227.705 87.152ZM207.825 87.152L205.999 90.7113L206.027 90.7252L206.054 90.7387L207.825 87.152ZM200.825 80.488L204.262 78.4428L200.825 80.488ZM203.625 55.68L206.423 58.5377L206.424 58.5374L203.625 55.68ZM231.961 55.68L229.161 58.5374L229.169 58.5448L229.176 58.552L231.961 55.68ZM234.761 80.488L231.342 78.411L231.333 78.4268L231.323 78.4428L234.761 80.488ZM217.793 85.16C220.445 85.16 222.621 83.9081 224.164 81.9788L217.917 76.9812C217.758 77.1801 217.682 77.206 217.719 77.1871C217.735 77.179 217.758 77.1697 217.783 77.1638C217.807 77.158 217.814 77.16 217.793 77.16V85.16ZM224.114 82.0407C225.51 80.3655 226.41 78.3848 226.901 76.2225L219.1 74.4495C218.845 75.5725 218.438 76.3545 217.968 76.9193L224.114 82.0407ZM226.881 76.3061C227.379 74.3157 227.617 72.2327 227.617 70.072H219.617C219.617 71.6446 219.444 73.071 219.12 74.3659L226.881 76.3061ZM227.617 70.072C227.617 67.8798 227.38 65.7665 226.886 63.7462L219.115 65.6458C219.443 66.9855 219.617 68.4562 219.617 70.072H227.617ZM226.891 63.7657C226.369 61.5818 225.477 59.5805 224.137 57.8654L217.833 62.7906C218.359 63.4648 218.811 64.3755 219.11 65.6263L226.891 63.7657ZM224.185 57.928C222.713 55.9655 220.556 54.536 217.793 54.536V62.536C217.774 62.536 217.732 62.5333 217.678 62.5191C217.623 62.5049 217.581 62.4858 217.556 62.4719C217.508 62.4445 217.598 62.4785 217.785 62.728L224.185 57.928ZM217.793 54.536C215.027 54.536 212.899 56.0054 211.457 57.928L217.857 62.728C218.053 62.4656 218.148 62.4279 218.097 62.457C218.07 62.4723 218.022 62.4953 217.955 62.5129C217.889 62.5306 217.831 62.536 217.793 62.536V54.536ZM211.457 57.928C210.196 59.6086 209.325 61.5593 208.77 63.6863L216.511 65.7057C216.852 64.398 217.325 63.4367 217.857 62.728L211.457 57.928ZM208.77 63.6863C208.232 65.7499 207.969 67.8822 207.969 70.072H215.969C215.969 68.5284 216.153 67.0767 216.511 65.7057L208.77 63.6863ZM207.969 70.072C207.969 72.2327 208.206 74.3157 208.704 76.3061L216.465 74.3659C216.141 73.071 215.969 71.6446 215.969 70.072H207.969ZM208.726 76.3885C209.291 78.4614 210.182 80.3599 211.477 81.9788L217.724 76.9812C217.227 76.3601 216.774 75.496 216.444 74.2835L208.726 76.3885ZM211.528 82.0407C213.037 83.8522 215.151 85.16 217.793 85.16V77.16C217.81 77.16 217.843 77.1624 217.884 77.1726C217.925 77.1827 217.952 77.1952 217.962 77.2003C217.98 77.2102 217.874 77.1603 217.674 76.9193L211.528 82.0407ZM225.934 83.5653C223.6 84.7174 220.895 85.336 217.737 85.336V93.336C221.97 93.336 225.91 92.4986 229.475 90.7387L225.934 83.5653ZM217.737 85.336C214.622 85.336 211.935 84.7201 209.595 83.5653L206.054 90.7387C209.613 92.4959 213.534 93.336 217.737 93.336V85.336ZM209.65 83.5927C207.44 82.4596 205.652 80.7789 204.262 78.4428L197.387 82.5332C199.507 86.0957 202.385 88.8577 205.999 90.7113L209.65 83.5927ZM204.262 78.4428C202.932 76.2075 202.193 73.4664 202.193 70.072H194.193C194.193 74.667 195.208 78.8699 197.387 82.5332L204.262 78.4428ZM202.193 70.072C202.193 64.8758 203.717 61.1888 206.423 58.5377L200.826 52.8223C196.29 57.2645 194.193 63.1722 194.193 70.072H202.193ZM206.424 58.5374C209.236 55.783 212.905 54.304 217.793 54.304V46.304C211.107 46.304 205.331 48.409 200.826 52.8226L206.424 58.5374ZM217.793 54.304C222.68 54.304 226.35 55.783 229.161 58.5374L234.76 52.8226C230.254 48.409 224.478 46.304 217.793 46.304V54.304ZM229.176 58.552C231.914 61.2058 233.449 64.8881 233.449 70.072H241.449C241.449 63.1599 239.325 57.2476 234.745 52.808L229.176 58.552ZM233.449 70.072C233.449 73.4515 232.697 76.1809 231.342 78.411L238.179 82.565C240.408 78.8965 241.449 74.6819 241.449 70.072H233.449ZM231.323 78.4428C229.941 80.7661 228.143 82.4464 225.898 83.5834L229.512 90.7206C233.165 88.871 236.071 86.1086 238.198 82.5332L231.323 78.4428ZM255.967 81.384H251.967V85.384H255.967V81.384ZM258.487 81.104L259.505 84.9723L259.571 84.9549L259.637 84.9353L258.487 81.104ZM260.559 79.984L263.102 83.0717L263.111 83.0643L263.12 83.0569L260.559 79.984ZM262.183 77.8L265.819 79.4666L265.819 79.4666L262.183 77.8ZM263.135 74.384L259.201 73.6594L259.194 73.7015L259.187 73.7437L263.135 74.384ZM262.967 64.024L259.087 64.9941L259.089 65.0058L259.092 65.0175L262.967 64.024ZM261.343 60.664L258.377 63.3477L258.41 63.3837L258.443 63.419L261.343 60.664ZM258.991 59.04L257.477 62.7422L257.576 62.7828L257.677 62.818L258.991 59.04ZM255.967 58.48L256.092 54.482L251.967 54.353V58.48H255.967ZM271.647 55.736L268.881 58.6252L268.888 58.6325L268.896 58.6398L271.647 55.736ZM276.407 75.168L272.491 74.3522L272.483 74.3914L272.476 74.4308L276.407 75.168ZM274.671 80.432L278.265 82.1888L278.272 82.1734L278.28 82.1578L274.671 80.432ZM271.591 84.856L274.42 87.6844L274.441 87.6633L274.461 87.6419L271.591 84.856ZM266.887 87.88L268.347 91.6039L268.379 91.5916L268.41 91.5787L266.887 87.88ZM244.487 87.264L241.422 89.8344L241.446 89.863L241.471 89.8911L244.487 87.264ZM255.967 85.384C257.178 85.384 258.376 85.2693 259.505 84.9723L257.469 77.2357C257.179 77.312 256.698 77.384 255.967 77.384V85.384ZM259.637 84.9353C260.92 84.5503 262.08 83.9136 263.102 83.0717L258.016 76.8963C257.769 77.0997 257.548 77.2097 257.338 77.2727L259.637 84.9353ZM263.12 83.0569C264.306 82.0684 265.191 80.8366 265.819 79.4666L258.547 76.1334C258.353 76.5554 258.156 76.7796 257.998 76.9111L263.12 83.0569ZM265.819 79.4666C266.428 78.1392 266.824 76.6247 267.084 75.0243L259.187 73.7437C258.998 74.906 258.76 75.6688 258.547 76.1334L265.819 79.4666ZM267.069 75.1087C267.386 73.3892 267.527 71.475 267.527 69.4H259.527C259.527 71.133 259.407 72.5415 259.201 73.6594L267.069 75.1087ZM267.527 69.4C267.527 67.0636 267.325 64.9144 266.842 63.0305L259.092 65.0175C259.356 66.0456 259.527 67.4804 259.527 69.4H267.527ZM266.848 63.0539C266.384 61.1974 265.606 59.3438 264.243 57.909L258.443 63.419C258.499 63.4775 258.804 63.8639 259.087 64.9941L266.848 63.0539ZM264.309 57.9803C263.224 56.7803 261.894 55.8146 260.305 55.262L257.677 62.818C257.806 62.8627 258.044 62.9797 258.377 63.3477L264.309 57.9803ZM260.506 55.3378C259.119 54.7704 257.609 54.5293 256.092 54.482L255.842 62.478C256.715 62.5053 257.221 62.6376 257.477 62.7422L260.506 55.3378ZM251.967 58.48V81.384H259.967V58.48H251.967ZM257.647 54.696C262.658 54.696 266.26 56.1157 268.881 58.6252L274.413 52.8468C270.016 48.6363 264.284 46.696 257.647 46.696V54.696ZM268.896 58.6398C271.483 61.0908 272.967 64.5783 272.967 69.624H280.967C280.967 62.8724 278.904 57.1012 274.398 52.8322L268.896 58.6398ZM272.967 69.624C272.967 71.2649 272.806 72.8391 272.491 74.3522L280.323 75.9838C280.754 73.9129 280.967 71.7911 280.967 69.624H272.967ZM272.476 74.4308C272.207 75.8658 271.74 77.2891 271.063 78.7062L278.28 82.1578C279.245 80.1403 279.936 78.0542 280.339 75.9052L272.476 74.4308ZM271.078 78.6752C270.431 79.9979 269.643 81.1204 268.721 82.0701L274.461 87.6419C276.004 86.0529 277.269 84.2261 278.265 82.1888L271.078 78.6752ZM268.763 82.0276C267.966 82.8247 266.867 83.5624 265.364 84.1813L268.41 91.5787C270.715 90.6296 272.753 89.3513 274.42 87.6844L268.763 82.0276ZM265.427 84.1561C264.059 84.6924 262.419 85 260.447 85V93C263.253 93 265.907 92.561 268.347 91.6039L265.427 84.1561ZM260.447 85H249.415V93H260.447V85ZM249.415 85C248.598 85 248.09 84.8939 247.804 84.7932C247.667 84.7451 247.591 84.7014 247.554 84.6773C247.519 84.6545 247.507 84.641 247.503 84.6369L241.471 89.8911C243.545 92.273 246.549 93 249.415 93V85ZM247.552 84.6936C247.605 84.7565 247.448 84.5972 247.292 83.9235C247.139 83.2678 247.031 82.3128 247.031 80.992H239.031C239.031 84.1581 239.481 87.5198 241.422 89.8344L247.552 84.6936ZM247.031 80.992V57.36H239.031V80.992H247.031ZM247.031 57.36C247.031 55.7133 247.428 55.2204 247.516 55.1291C247.572 55.0699 247.948 54.696 249.415 54.696V46.696C246.626 46.696 243.81 47.4328 241.739 49.5949C239.698 51.725 239.031 54.564 239.031 57.36H247.031ZM249.415 54.696H257.647V46.696H249.415V54.696Z" fill="#FBFDF7"/>
</g>
<defs>
<filter id="filter0_d_158_262" x="-11" y="-7" width="380" height="163" filterUnits="userSpaceOnUse" color-interpolation-filters="sRGB">
<feFlood flood-opacity="0" result="BackgroundImageFix"/>
<feColorMatrix in="SourceAlpha" type="matrix" values="0 0 0 0 0 0 0 0 0 0 0 0 0 0 0 0 0 0 127 0" result="hardAlpha"/>
<feOffset dy="4"/>
<feGaussianBlur stdDeviation="5"/>
<feComposite in2="hardAlpha" operator="out"/>
<feColorMatrix type="matrix" values="0 0 0 0 0 0 0 0 0 0 0 0 0 0 0 0 0 0 0.15 0"/>
<feBlend mode="normal" in2="BackgroundImageFix" result="effect1_dropShadow_158_262"/>
<feBlend mode="normal" in="SourceGraphic" in2="effect1_dropShadow_158_262" result="shape"/>
</filter>
<filter id="filter1_d_158_262" x="61" y="-7" width="92" height="163" filterUnits="userSpaceOnUse" color-interpolation-filters="sRGB">
<feFlood flood-opacity="0" result="BackgroundImageFix"/>
<feColorMatrix in="SourceAlpha" type="matrix" values="0 0 0 0 0 0 0 0 0 0 0 0 0 0 0 0 0 0 127 0" result="hardAlpha"/>
<feOffset dy="4"/>
<feGaussianBlur stdDeviation="5"/>
<feComposite in2="hardAlpha" operator="out"/>
<feColorMatrix type="matrix" values="0 0 0 0 0 0 0 0 0 0 0 0 0 0 0 0 0 0 0.15 0"/>
<feBlend mode="normal" in2="BackgroundImageFix" result="effect1_dropShadow_158_262"/>
<feBlend mode="normal" in="SourceGraphic" in2="effect1_dropShadow_158_262" result="shape"/>
</filter>
<filter id="filter2_d_158_262" x="133" y="-7" width="92" height="163" filterUnits="userSpaceOnUse" color-interpolation-filters="sRGB">
<feFlood flood-opacity="0" result="BackgroundImageFix"/>
<feColorMatrix in="SourceAlpha" type="matrix" values="0 0 0 0 0 0 0 0 0 0 0 0 0 0 0 0 0 0 127 0" result="hardAlpha"/>
<feOffset dy="4"/>
<feGaussianBlur stdDeviation="5"/>
<feComposite in2="hardAlpha" operator="out"/>
<feColorMatrix type="matrix" values="0 0 0 0 0 0 0 0 0 0 0 0 0 0 0 0 0 0 0.15 0"/>
<feBlend mode="normal" in2="BackgroundImageFix" result="effect1_dropShadow_158_262"/>
<feBlend mode="normal" in="SourceGraphic" in2="effect1_dropShadow_158_262" result="shape"/>
</filter>
<filter id="filter3_d_158_262" x="205" y="-7" width="92" height="163" filterUnits="userSpaceOnUse" color-interpolation-filters="sRGB">
<feFlood flood-opacity="0" result="BackgroundImageFix"/>
<feColorMatrix in="SourceAlpha" type="matrix" values="0 0 0 0 0 0 0 0 0 0 0 0 0 0 0 0 0 0 127 0" result="hardAlpha"/>
<feOffset dy="4"/>
<feGaussianBlur stdDeviation="5"/>
<feComposite in2="hardAlpha" operator="out"/>
<feColorMatrix type="matrix" values="0 0 0 0 0 0 0 0 0 0 0 0 0 0 0 0 0 0 0.15 0"/>
<feBlend mode="normal" in2="BackgroundImageFix" result="effect1_dropShadow_158_262"/>
<feBlend mode="normal" in="SourceGraphic" in2="effect1_dropShadow_158_262" result="shape"/>
</filter>
<filter id="filter4_d_158_262" x="277" y="-7" width="92" height="163" filterUnits="userSpaceOnUse" color-interpolation-filters="sRGB">
<feFlood flood-opacity="0" result="BackgroundImageFix"/>
<feColorMatrix in="SourceAlpha" type="matrix" values="0 0 0 0 0 0 0 0 0 0 0 0 0 0 0 0 0 0 127 0" result="hardAlpha"/>
<feOffset dy="4"/>
<feGaussianBlur stdDeviation="5"/>
<feComposite in2="hardAlpha" operator="out"/>
<feColorMatrix type="matrix" values="0 0 0 0 0 0 0 0 0 0 0 0 0 0 0 0 0 0 0.15 0"/>
<feBlend mode="normal" in2="BackgroundImageFix" result="effect1_dropShadow_158_262"/>
<feBlend mode="normal" in="SourceGraphic" in2="effect1_dropShadow_158_262" result="shape"/>
</filter>
<filter id="filter5_d_158_262" x="-11" y="-7" width="92" height="163" filterUnits="userSpaceOnUse" color-interpolation-filters="sRGB">
<feFlood flood-opacity="0" result="BackgroundImageFix"/>
<feColorMatrix in="SourceAlpha" type="matrix" values="0 0 0 0 0 0 0 0 0 0 0 0 0 0 0 0 0 0 127 0" result="hardAlpha"/>
<feOffset dy="4"/>
<feGaussianBlur stdDeviation="5"/>
<feComposite in2="hardAlpha" operator="out"/>
<feColorMatrix type="matrix" values="0 0 0 0 0 0 0 0 0 0 0 0 0 0 0 0 0 0 0.15 0"/>
<feBlend mode="normal" in2="BackgroundImageFix" result="effect1_dropShadow_158_262"/>
<feBlend mode="normal" in="SourceGraphic" in2="effect1_dropShadow_158_262" result="shape"/>
</filter>
<filter id="filter6_d_158_262" x="79.416" y="48.304" width="203.551" height="47.032" filterUnits="userSpaceOnUse" color-interpolation-filters="sRGB">
<feFlood flood-opacity="0" result="BackgroundImageFix"/>
<feColorMatrix in="SourceAlpha" type="matrix" values="0 0 0 0 0 0 0 0 0 0 0 0 0 0 0 0 0 0 127 0" result="hardAlpha"/>
<feOffset dx="2" dy="2"/>
<feGaussianBlur stdDeviation="2"/>
<feComposite in2="hardAlpha" operator="out"/>
<feColorMatrix type="matrix" values="0 0 0 0 0 0 0 0 0 0 0 0 0 0 0 0 0 0 0.2 0"/>
<feBlend mode="normal" in2="BackgroundImageFix" result="effect1_dropShadow_158_262"/>
<feBlend mode="normal" in="SourceGraphic" in2="effect1_dropShadow_158_262" result="shape"/>
</filter>
</defs>
</svg>
