<svg width="65" height="21" viewBox="0 0 65 21" fill="none" xmlns="http://www.w3.org/2000/svg">
<g filter="url(#filter0_d_158_266)">
<path d="M6.672 11.776C6.672 12.5013 6.512 13.056 6.192 13.44C5.872 13.8133 5.408 14 4.8 14C4.224 14 3.776 13.8293 3.456 13.488C3.136 13.136 2.976 12.544 2.976 11.712V4.96C2.976 4.61867 3.01867 4.32533 3.104 4.08C3.2 3.824 3.33333 3.62133 3.504 3.472C3.67467 3.32267 3.86667 3.216 4.08 3.152C4.29333 3.07733 4.53333 3.04 4.8 3.04H10.048C10.6667 3.04 11.1253 3.136 11.424 3.328C11.7333 3.52 11.888 3.86667 11.888 4.368C11.888 4.83733 11.7547 5.168 11.488 5.36C11.232 5.54133 10.8053 5.632 10.208 5.632H6.672V7.504H9.488C9.776 7.504 10.016 7.52533 10.208 7.568C10.4107 7.61067 10.5707 7.68533 10.688 7.792C10.816 7.888 10.9013 8.01067 10.944 8.16C10.9973 8.29867 11.024 8.48 11.024 8.704C11.024 9.06667 10.8907 9.328 10.624 9.488C10.3573 9.63733 9.93067 9.712 9.344 9.712H6.672V11.776ZM19.0965 6.224C19.0965 5.712 18.9098 5.36 18.5365 5.168C18.1632 4.976 17.5338 4.88 16.6485 4.88V7.648C17.4805 7.648 18.0938 7.54667 18.4885 7.344C18.8938 7.13067 19.0965 6.75733 19.0965 6.224ZM16.6485 11.6C16.6485 13.2 16.0245 14 14.7765 14C14.1472 14 13.6832 13.8347 13.3845 13.504C13.0965 13.1627 12.9525 12.5653 12.9525 11.712V4.96C12.9525 4.34133 13.1178 3.872 13.4485 3.552C13.7898 3.22133 14.2325 3.056 14.7765 3.056H18.1365C19.4485 3.056 20.5098 3.36533 21.3205 3.984C22.1312 4.592 22.5365 5.376 22.5365 6.336C22.5365 7.06133 22.3818 7.632 22.0725 8.048C21.7738 8.45333 21.2885 8.752 20.6165 8.944C21.1285 8.976 21.6032 9.22667 22.0405 9.696C22.4778 10.1547 22.6965 10.7307 22.6965 11.424C22.6965 12.128 22.6272 12.672 22.4885 13.056C22.3605 13.4293 22.1738 13.68 21.9285 13.808C21.6832 13.936 21.3365 14 20.8885 14C20.2592 14 19.7952 13.872 19.4965 13.616C19.2085 13.3493 19.0645 12.9493 19.0645 12.416C19.0645 11.7547 19.0005 11.248 18.8725 10.896C18.7445 10.5333 18.5792 10.2987 18.3765 10.192C18.1738 10.0853 17.8912 10.032 17.5285 10.032L16.6485 10.048V11.6ZM29.3858 11.76C29.7484 11.76 30.0578 11.6 30.3138 11.28C30.5804 10.96 30.7671 10.5653 30.8738 10.096C30.9911 9.62667 31.0498 9.12533 31.0498 8.592C31.0498 8.048 30.9911 7.536 30.8738 7.056C30.7564 6.56533 30.5644 6.14933 30.2978 5.808C30.0418 5.46667 29.7378 5.296 29.3858 5.296C29.0444 5.296 28.7458 5.46667 28.4898 5.808C28.2338 6.14933 28.0418 6.56533 27.9138 7.056C27.7858 7.54667 27.7218 8.05867 27.7218 8.592C27.7218 9.12533 27.7804 9.62667 27.8978 10.096C28.0258 10.5653 28.2178 10.96 28.4738 11.28C28.7404 11.6 29.0444 11.76 29.3858 11.76ZM32.2178 13.472C31.3751 13.888 30.4258 14.096 29.3698 14.096C28.3244 14.096 27.3804 13.888 26.5378 13.472C25.7058 13.0453 25.0391 12.4107 24.5378 11.568C24.0364 10.7253 23.7858 9.73333 23.7858 8.592C23.7858 6.864 24.3031 5.49333 25.3378 4.48C26.3831 3.456 27.7324 2.944 29.3858 2.944C31.0391 2.944 32.3884 3.456 33.4338 4.48C34.4791 5.49333 35.0018 6.864 35.0018 8.592C35.0018 9.73333 34.7458 10.7253 34.2338 11.568C33.7324 12.4107 33.0604 13.0453 32.2178 13.472ZM41.9408 11.76C42.3034 11.76 42.6128 11.6 42.8688 11.28C43.1354 10.96 43.3221 10.5653 43.4288 10.096C43.5461 9.62667 43.6048 9.12533 43.6048 8.592C43.6048 8.048 43.5461 7.536 43.4288 7.056C43.3114 6.56533 43.1194 6.14933 42.8528 5.808C42.5968 5.46667 42.2928 5.296 41.9408 5.296C41.5994 5.296 41.3008 5.46667 41.0448 5.808C40.7888 6.14933 40.5968 6.56533 40.4688 7.056C40.3408 7.54667 40.2768 8.05867 40.2768 8.592C40.2768 9.12533 40.3354 9.62667 40.4528 10.096C40.5808 10.5653 40.7728 10.96 41.0288 11.28C41.2954 11.6 41.5994 11.76 41.9408 11.76ZM44.7728 13.472C43.9301 13.888 42.9808 14.096 41.9248 14.096C40.8794 14.096 39.9354 13.888 39.0928 13.472C38.2608 13.0453 37.5941 12.4107 37.0928 11.568C36.5914 10.7253 36.3408 9.73333 36.3408 8.592C36.3408 6.864 36.8581 5.49333 37.8928 4.48C38.9381 3.456 40.2874 2.944 41.9408 2.944C43.5941 2.944 44.9434 3.456 45.9888 4.48C47.0341 5.49333 47.5568 6.864 47.5568 8.592C47.5568 9.73333 47.3008 10.7253 46.7888 11.568C46.2874 12.4107 45.6154 13.0453 44.7728 13.472ZM52.8478 11.824C53.1251 11.824 53.3651 11.7973 53.5678 11.744C53.7811 11.68 53.9784 11.5733 54.1598 11.424C54.3518 11.264 54.5064 11.056 54.6238 10.8C54.7411 10.544 54.8318 10.2187 54.8958 9.824C54.9704 9.41867 55.0078 8.944 55.0078 8.4C55.0078 7.792 54.9544 7.28 54.8478 6.864C54.7411 6.43733 54.5864 6.11733 54.3838 5.904C54.1811 5.68 53.9571 5.52533 53.7118 5.44C53.4771 5.344 53.1891 5.29067 52.8478 5.28V11.824ZM53.3278 3.056C54.9918 3.056 56.3251 3.536 57.3278 4.496C58.3411 5.456 58.8478 6.77867 58.8478 8.464C58.8478 9.008 58.7944 9.536 58.6878 10.048C58.5918 10.56 58.4264 11.0613 58.1918 11.552C57.9571 12.032 57.6638 12.4533 57.3118 12.816C56.9598 13.168 56.5118 13.456 55.9678 13.68C55.4238 13.8933 54.8104 14 54.1278 14H50.9758C50.3251 14 49.8558 13.8347 49.5678 13.504C49.2904 13.1733 49.1518 12.576 49.1518 11.712V4.96C49.1518 3.69067 49.7598 3.056 50.9758 3.056H53.3278Z" fill="#B6D9C9"/>
<path d="M6.192 13.44L7.71051 14.7416L7.71955 14.731L7.72844 14.7204L6.192 13.44ZM3.456 13.488L1.97612 14.8333L1.98644 14.8447L1.99693 14.8559L3.456 13.488ZM3.104 4.08L1.23134 3.37775L1.2229 3.40026L1.21501 3.42296L3.104 4.08ZM4.08 3.152L4.65469 5.06765L4.69801 5.05466L4.7407 5.03972L4.08 3.152ZM11.424 3.328L10.3425 5.01036L10.3558 5.01892L10.3693 5.02728L11.424 3.328ZM11.488 5.36L12.644 6.99205L12.6503 6.98758L12.6566 6.98307L11.488 5.36ZM6.672 5.632V3.632H4.672V5.632H6.672ZM6.672 7.504H4.672V9.504H6.672V7.504ZM10.208 7.568L9.77414 9.52037L9.78505 9.5228L9.79598 9.5251L10.208 7.568ZM10.688 7.792L9.34266 9.27188L9.41249 9.33537L9.488 9.392L10.688 7.792ZM10.944 8.16L9.02095 8.70944L9.04538 8.79495L9.07731 8.87796L10.944 8.16ZM10.624 9.488L11.6012 11.233L11.6273 11.2184L11.653 11.203L10.624 9.488ZM6.672 9.712V7.712H4.672V9.712H6.672ZM4.672 11.776C4.672 11.9969 4.64707 12.1237 4.63035 12.1817C4.6153 12.2339 4.6129 12.2108 4.65556 12.1596L7.72844 14.7204C8.45758 13.8454 8.672 12.7633 8.672 11.776H4.672ZM4.67349 12.1384C4.69639 12.1117 4.72641 12.0833 4.76252 12.0575C4.79851 12.0318 4.83195 12.0148 4.85754 12.0045C4.908 11.9842 4.9019 12 4.8 12V16C5.84173 16 6.92266 15.6607 7.71051 14.7416L4.67349 12.1384ZM4.8 12C4.70757 12 4.69989 11.9862 4.74399 12.003C4.76629 12.0115 4.79627 12.0258 4.8294 12.0479C4.86268 12.0701 4.89171 12.0952 4.91507 12.1201L1.99693 14.8559C2.77951 15.6906 3.80821 16 4.8 16V12ZM4.93588 12.1427C5.04207 12.2595 5.04711 12.3336 5.02673 12.2582C5.00574 12.1805 4.976 12.0099 4.976 11.712H0.976C0.976 12.7014 1.14736 13.9217 1.97612 14.8333L4.93588 12.1427ZM4.976 11.712V4.96H0.976V11.712H4.976ZM4.976 4.96C4.976 4.77614 5.00013 4.71652 4.99299 4.73704L1.21501 3.42296C1.0372 3.93414 0.976 4.46119 0.976 4.96H4.976ZM4.97666 4.78225C4.98033 4.77245 4.94534 4.86836 4.82101 4.97715L2.18699 1.96685C1.72133 2.3743 1.41967 2.87554 1.23134 3.37775L4.97666 4.78225ZM4.82101 4.97715C4.80347 4.9925 4.77874 5.01084 4.74729 5.02831C4.71573 5.04585 4.68391 5.05889 4.65469 5.06765L3.50531 1.23635C3.01294 1.38406 2.56887 1.63271 2.18699 1.96685L4.82101 4.97715ZM4.7407 5.03972C4.70737 5.05138 4.71883 5.04 4.8 5.04V1.04C4.34783 1.04 3.87929 1.10328 3.4193 1.26428L4.7407 5.03972ZM4.8 5.04H10.048V1.04H4.8V5.04ZM10.048 5.04C10.2606 5.04 10.3866 5.05709 10.4463 5.06958C10.5089 5.08269 10.4524 5.08104 10.3425 5.01036L12.5055 1.64564C11.724 1.14323 10.8001 1.04 10.048 1.04V5.04ZM10.3693 5.02728C10.169 4.90297 10.0238 4.7224 9.94554 4.54688C9.87804 4.3956 9.888 4.31239 9.888 4.368H13.888C13.888 3.46429 13.5857 2.31578 12.4787 1.62872L10.3693 5.02728ZM9.888 4.368C9.888 4.42323 9.87886 4.35462 9.93312 4.22006C9.99537 4.06568 10.1198 3.88065 10.3194 3.73693L12.6566 6.98307C13.6448 6.27156 13.888 5.18725 13.888 4.368H9.888ZM10.332 3.72795C10.4169 3.66779 10.4864 3.63593 10.5237 3.62105C10.5609 3.60623 10.576 3.60433 10.5603 3.60768C10.545 3.61092 10.5089 3.61736 10.4476 3.62279C10.3867 3.62818 10.3076 3.632 10.208 3.632V7.632C10.9007 7.632 11.8599 7.5475 12.644 6.99205L10.332 3.72795ZM10.208 3.632H6.672V7.632H10.208V3.632ZM4.672 5.632V7.504H8.672V5.632H4.672ZM6.672 9.504H9.488V5.504H6.672V9.504ZM9.488 9.504C9.58389 9.504 9.65583 9.5076 9.70692 9.51215C9.75897 9.51677 9.77909 9.52147 9.77414 9.52037L10.6419 5.61563C10.2584 5.5304 9.86123 5.504 9.488 5.504V9.504ZM9.79598 9.5251C9.7545 9.51637 9.55723 9.46695 9.34266 9.27188L12.0333 6.31212C11.5841 5.90372 11.0668 5.70496 10.62 5.6109L9.79598 9.5251ZM9.488 9.392C9.39334 9.321 9.29376 9.22401 9.20619 9.09813C9.11822 8.97167 9.0577 8.83805 9.02095 8.70944L12.867 7.61056C12.7006 7.02808 12.3539 6.54139 11.888 6.192L9.488 9.392ZM9.07731 8.87796C9.04039 8.78197 9.02865 8.7139 9.02528 8.69099C9.02174 8.66693 9.024 8.66886 9.024 8.704H13.024C13.024 8.34673 12.985 7.89529 12.8107 7.44204L9.07731 8.87796ZM9.024 8.704C9.024 8.64262 9.03558 8.47258 9.14248 8.26306C9.25654 8.03949 9.42708 7.87377 9.59501 7.77302L11.653 11.203C12.6317 10.6157 13.024 9.6311 13.024 8.704H9.024ZM9.64679 7.74299C9.71484 7.70488 9.76325 7.68799 9.77914 7.68286C9.7955 7.67758 9.79096 7.68039 9.75924 7.68594C9.69162 7.69777 9.55938 7.712 9.344 7.712V11.712C10.0116 11.712 10.87 11.6425 11.6012 11.233L9.64679 7.74299ZM9.344 7.712H6.672V11.712H9.344V7.712ZM4.672 9.712V11.776H8.672V9.712H4.672ZM18.5365 5.168L17.6218 6.94657V6.94658L18.5365 5.168ZM16.6485 4.88V2.88H14.6485V4.88H16.6485ZM16.6485 7.648H14.6485V9.648H16.6485V7.648ZM18.4885 7.344L19.4021 9.12313L19.4111 9.11853L19.42 9.11384L18.4885 7.344ZM13.3845 13.504L11.8559 14.7937L11.8777 14.8195L11.9003 14.8446L13.3845 13.504ZM13.4485 3.552L14.8393 4.9892L14.8401 4.98848L13.4485 3.552ZM21.3205 3.984L20.1072 5.5739L20.1138 5.57898L20.1205 5.584L21.3205 3.984ZM22.0725 8.048L20.4676 6.85458L20.4624 6.8616L22.0725 8.048ZM20.6165 8.944L20.0671 7.02095L20.4917 10.9401L20.6165 8.944ZM22.0405 9.696L20.5773 11.0595L20.5851 11.0678L20.593 11.0761L22.0405 9.696ZM22.4885 13.056L20.6074 12.3767L20.6019 12.392L20.5966 12.4074L22.4885 13.056ZM19.4965 13.616L18.1377 15.0835L18.1658 15.1096L18.1949 15.1345L19.4965 13.616ZM18.8725 10.896L16.9865 11.5616L16.9897 11.5706L16.9929 11.5795L18.8725 10.896ZM18.3765 10.192L17.445 11.9618L17.445 11.9618L18.3765 10.192ZM17.5285 10.032V8.032H17.5103L17.4921 8.03233L17.5285 10.032ZM16.6485 10.048L16.6121 8.04833L14.6485 8.08403V10.048H16.6485ZM21.0965 6.224C21.0965 5.16019 20.6501 4.00598 19.4512 3.38942L17.6218 6.94658C17.4657 6.86631 17.2983 6.71798 17.1896 6.51301C17.0924 6.3298 17.0965 6.20415 17.0965 6.224H21.0965ZM19.4512 3.38942C18.6224 2.96318 17.574 2.88 16.6485 2.88V6.88C17.026 6.88 17.2981 6.90094 17.4829 6.92913C17.6824 6.95956 17.6996 6.9866 17.6218 6.94657L19.4512 3.38942ZM14.6485 4.88V7.648H18.6485V4.88H14.6485ZM16.6485 9.648C17.5663 9.648 18.5729 9.54895 19.4021 9.12313L17.5749 5.56487C17.6197 5.54185 17.5839 5.56944 17.4065 5.59875C17.2367 5.62681 16.9893 5.648 16.6485 5.648V9.648ZM19.42 9.11384C20.6039 8.49073 21.0965 7.35181 21.0965 6.224H17.0965C17.0965 6.24097 17.0935 6.12164 17.1868 5.94982C17.2891 5.76144 17.4384 5.6366 17.557 5.57416L19.42 9.11384ZM14.6485 11.6C14.6485 11.8765 14.6209 12.0506 14.5959 12.1467C14.5717 12.2397 14.5587 12.2274 14.6035 12.1699C14.6562 12.1024 14.7337 12.0433 14.8096 12.0109C14.8734 11.9836 14.8778 12 14.7765 12V16C15.8597 16 16.9794 15.6276 17.7575 14.6301C18.4619 13.727 18.6485 12.605 18.6485 11.6H14.6485ZM14.7765 12C14.6301 12 14.5939 11.9799 14.6278 11.992C14.647 11.9989 14.6838 12.0144 14.7299 12.0444C14.7768 12.0749 14.8248 12.1148 14.8687 12.1634L11.9003 14.8446C12.7136 15.7451 13.8213 16 14.7765 16V12ZM14.9131 12.2143C15.0304 12.3533 15.0298 12.4351 15.0048 12.3313C14.981 12.2325 14.9525 12.0369 14.9525 11.712H10.9525C10.9525 12.6645 11.0879 13.8835 11.8559 14.7937L14.9131 12.2143ZM14.9525 11.712V4.96H10.9525V11.712H14.9525ZM14.9525 4.96C14.9525 4.82413 14.9712 4.78496 14.9629 4.80852C14.9582 4.82175 14.947 4.849 14.9249 4.88411C14.9025 4.91973 14.8737 4.956 14.8393 4.9892L12.0577 2.1148C11.2178 2.92758 10.9525 3.99277 10.9525 4.96H14.9525ZM14.8401 4.98848C14.8294 4.99885 14.8134 5.01209 14.7928 5.02516C14.7721 5.03824 14.7523 5.04758 14.7363 5.05358C14.7027 5.06614 14.7078 5.056 14.7765 5.056V1.056C13.7943 1.056 12.8259 1.3706 12.0569 2.11552L14.8401 4.98848ZM14.7765 5.056H18.1365V1.056H14.7765V5.056ZM18.1365 5.056C19.1366 5.056 19.7338 5.28899 20.1072 5.5739L22.5338 2.3941C21.2859 1.44168 19.7604 1.056 18.1365 1.056V5.056ZM20.1205 5.584C20.4602 5.83879 20.5365 6.04526 20.5365 6.336H24.5365C24.5365 4.70674 23.8021 3.34521 22.5205 2.384L20.1205 5.584ZM20.5365 6.336C20.5365 6.79873 20.4359 6.89725 20.4676 6.85459L23.6774 9.2414C24.3278 8.36674 24.5365 7.32393 24.5365 6.336H20.5365ZM20.4624 6.8616C20.5111 6.7955 20.4759 6.90414 20.0671 7.02095L21.1659 10.867C22.1011 10.5999 23.0366 10.1112 23.6826 9.2344L20.4624 6.8616ZM20.4917 10.9401C20.4754 10.9391 20.4583 10.9361 20.4427 10.9317C20.4274 10.9273 20.4203 10.9234 20.4226 10.9245C20.4277 10.9273 20.4822 10.9574 20.5773 11.0595L23.5037 8.33255C22.8091 7.58711 21.8838 7.0193 20.7413 6.94789L20.4917 10.9401ZM20.593 11.0761C20.6409 11.1263 20.6965 11.1918 20.6965 11.424H24.6965C24.6965 10.2695 24.3148 9.18301 23.488 8.31585L20.593 11.0761ZM20.6965 11.424C20.6965 12.039 20.6303 12.3132 20.6074 12.3767L24.3696 13.7353C24.624 13.0308 24.6965 12.217 24.6965 11.424H20.6965ZM20.5966 12.4074C20.564 12.5025 20.6318 12.2287 21.0034 12.0348L22.8536 15.5812C23.7159 15.1313 24.157 14.3562 24.3804 13.7046L20.5966 12.4074ZM21.0034 12.0348C21.0523 12.0093 21.0892 11.9958 21.1085 11.9896C21.1277 11.9833 21.1332 11.9831 21.1214 11.9852C21.0949 11.9901 21.0217 12 20.8885 12V16C21.4811 16 22.1985 15.923 22.8536 15.5812L21.0034 12.0348ZM20.8885 12C20.7981 12 20.7295 11.9954 20.6801 11.9896C20.6304 11.9838 20.6055 11.9774 20.6004 11.976C20.5898 11.9731 20.6798 11.9961 20.7981 12.0975L18.1949 15.1345C19.0185 15.8405 20.0514 16 20.8885 16V12ZM20.8553 12.1485C20.9656 12.2506 21.027 12.3627 21.0543 12.4386C21.0775 12.5032 21.0645 12.5081 21.0645 12.416H17.0645C17.0645 13.2988 17.31 14.3172 18.1377 15.0835L20.8553 12.1485ZM21.0645 12.416C21.0645 11.6717 20.9986 10.8904 20.7521 10.2125L16.9929 11.5795C16.9914 11.5754 17.0127 11.6356 17.0323 11.7906C17.0512 11.9408 17.0645 12.1461 17.0645 12.416H21.0645ZM20.7585 10.2304C20.5689 9.69334 20.1755 8.87873 19.308 8.42216L17.445 11.9618C17.2043 11.8351 17.072 11.6772 17.0175 11.5999C16.9658 11.5265 16.9642 11.4985 16.9865 11.5616L20.7585 10.2304ZM19.308 8.42216C18.6979 8.10108 18.0454 8.032 17.5285 8.032V12.032C17.616 12.032 17.6494 12.0388 17.6417 12.0373C17.6364 12.0363 17.6159 12.0322 17.5833 12.0214C17.5507 12.0107 17.5028 11.9923 17.445 11.9618L19.308 8.42216ZM17.4921 8.03233L16.6121 8.04833L16.6849 12.0477L17.5649 12.0317L17.4921 8.03233ZM14.6485 10.048V11.6H18.6485V10.048H14.6485ZM30.3138 11.28L28.7773 9.99963L28.7645 10.015L28.752 10.0306L30.3138 11.28ZM30.8738 10.096L28.9335 9.61093L28.9283 9.63179L28.9235 9.65276L30.8738 10.096ZM30.8738 7.056L28.9286 7.52115L28.931 7.53091L30.8738 7.056ZM30.2978 5.808L28.6978 7.008L28.7096 7.02376L28.7217 7.03929L30.2978 5.808ZM27.9137 7.056L25.9785 6.55116V6.55116L27.9137 7.056ZM27.8978 10.096L25.9575 10.5811L25.9626 10.6017L25.9682 10.6222L27.8978 10.096ZM28.4738 11.28L26.912 12.5294L26.9245 12.545L26.9373 12.5604L28.4738 11.28ZM32.2178 13.472L33.1031 15.2654L33.1122 15.2609L33.1212 15.2563L32.2178 13.472ZM26.5378 13.472L25.6251 15.2516L25.6387 15.2586L25.6524 15.2654L26.5378 13.472ZM24.5378 11.568L26.2566 10.5454L24.5378 11.568ZM25.3378 4.48L26.7372 5.90887L26.7373 5.90872L25.3378 4.48ZM33.4338 4.48L32.0342 5.90874L32.0417 5.91602L33.4338 4.48ZM34.2337 11.568L32.5245 10.5295L32.5197 10.5374L32.5149 10.5454L34.2337 11.568ZM29.3857 13.76C30.4401 13.76 31.2958 13.254 31.8755 12.5294L28.752 10.0306C28.7685 10.01 28.8367 9.933 28.9709 9.86356C29.1121 9.79051 29.261 9.76 29.3857 9.76V13.76ZM31.8502 12.5604C32.3482 11.9627 32.6583 11.2684 32.824 10.5392L28.9235 9.65276C28.8759 9.86227 28.8126 9.95727 28.7773 9.99963L31.8502 12.5604ZM32.814 10.5811C32.9748 9.93784 33.0498 9.27235 33.0498 8.592H29.0498C29.0498 8.97832 29.0073 9.31549 28.9335 9.61093L32.814 10.5811ZM33.0498 8.592C33.0498 7.90389 32.9755 7.23127 32.8165 6.58109L28.931 7.53091C29.0067 7.84073 29.0498 8.19211 29.0498 8.592H33.0498ZM32.8189 6.59085C32.6458 5.86691 32.3438 5.17826 31.8738 4.57671L28.7217 7.03929C28.7851 7.12041 28.867 7.26376 28.9286 7.52115L32.8189 6.59085ZM31.8978 4.608C31.3538 3.88275 30.5032 3.296 29.3857 3.296V7.296C29.2223 7.296 29.0487 7.25219 28.8987 7.16797C28.7602 7.09024 28.7002 7.01126 28.6978 7.008L31.8978 4.608ZM29.3857 3.296C28.2587 3.296 27.4187 3.9027 26.8898 4.608L30.0898 7.008C30.0899 7.00783 30.0896 7.00817 30.0897 7.008C30.0899 7.00784 30.0896 7.00817 30.0897 7.00801C30.0897 7.00802 30.0897 7.00803 30.0897 7.00805C30.0897 7.00808 30.0897 7.00813 30.0896 7.00819C30.0895 7.00832 30.0894 7.00852 30.0892 7.00877C30.0888 7.00929 30.0881 7.01006 30.0873 7.01107C30.0857 7.01309 30.0831 7.01612 30.0796 7.02003C30.0727 7.02782 30.0617 7.03941 30.0463 7.05361C30.0153 7.08222 29.9665 7.12138 29.898 7.16049C29.7476 7.24642 29.566 7.296 29.3857 7.296V3.296ZM26.8898 4.608C26.4515 5.19232 26.16 5.85565 25.9785 6.55116L29.849 7.56084C29.9235 7.27502 30.016 7.10635 30.0898 7.008L26.8898 4.608ZM25.9785 6.55116C25.8053 7.21497 25.7218 7.89712 25.7218 8.592H29.7218C29.7218 8.22021 29.7662 7.87836 29.849 7.56084L25.9785 6.55116ZM25.7218 8.592C25.7218 9.27235 25.7967 9.93784 25.9575 10.5811L29.838 9.61093C29.7642 9.31549 29.7218 8.97832 29.7218 8.592H25.7218ZM25.9682 10.6222C26.1549 11.3067 26.4564 11.9599 26.912 12.5294L30.0355 10.0306C29.9791 9.96007 29.8966 9.82399 29.8273 9.56977L25.9682 10.6222ZM26.9373 12.5604C27.4921 13.2261 28.3209 13.76 29.3857 13.76V9.76C29.5418 9.76 29.7 9.80001 29.8332 9.87016C29.8944 9.90233 29.939 9.93493 29.9681 9.95944C29.9968 9.98355 30.01 9.99942 30.0102 9.99963L26.9373 12.5604ZM31.3324 11.6786C30.7975 11.9427 30.157 12.096 29.3698 12.096V16.096C30.6945 16.096 31.9527 15.8333 33.1031 15.2654L31.3324 11.6786ZM29.3698 12.096C28.5966 12.096 27.9608 11.9441 27.4231 11.6786L25.6524 15.2654C26.8001 15.8319 28.0522 16.096 29.3698 16.096V12.096ZM27.4504 11.6924C26.9696 11.4458 26.5755 11.0815 26.2566 10.5454L22.8189 12.5906C23.5027 13.7399 24.4419 14.6449 25.6251 15.2516L27.4504 11.6924ZM26.2566 10.5454C25.9676 10.0597 25.7858 9.43319 25.7858 8.592H21.7858C21.7858 10.0335 22.1052 11.3909 22.8189 12.5906L26.2566 10.5454ZM25.7858 8.592C25.7858 7.28992 26.1597 6.47441 26.7372 5.90887L23.9383 3.05113C22.4465 4.51225 21.7858 6.43808 21.7858 8.592H25.7858ZM26.7373 5.90872C27.3592 5.29952 28.1819 4.944 29.3857 4.944V0.943999C27.283 0.943999 25.407 1.61248 23.9382 3.05128L26.7373 5.90872ZM29.3857 4.944C30.5896 4.944 31.4123 5.29952 32.0342 5.90872L34.8333 3.05128C33.3645 1.61248 31.4885 0.943999 29.3857 0.943999V4.944ZM32.0417 5.91602C32.6265 6.48289 33.0018 7.29603 33.0018 8.592H37.0018C37.0018 6.43197 36.3317 4.50378 34.8258 3.04398L32.0417 5.91602ZM33.0018 8.592C33.0018 9.42573 32.818 10.0464 32.5245 10.5295L35.943 12.6065C36.6735 11.4042 37.0018 10.0409 37.0018 8.592H33.0018ZM32.5149 10.5454C32.1998 11.075 31.8051 11.4392 31.3143 11.6877L33.1212 15.2563C34.3157 14.6515 35.265 13.7463 35.9526 12.5906L32.5149 10.5454ZM42.8688 11.28L41.3323 9.99963L41.3195 10.015L41.307 10.0306L42.8688 11.28ZM43.4288 10.096L41.4885 9.61093L41.4832 9.63179L41.4785 9.65276L43.4288 10.096ZM43.4288 7.056L41.4836 7.52115L41.486 7.53091L43.4288 7.056ZM42.8528 5.808L41.2528 7.008L41.2646 7.02376L41.2767 7.03929L42.8528 5.808ZM40.4688 7.056L38.5335 6.55116V6.55116L40.4688 7.056ZM40.4528 10.096L38.5125 10.5811L38.5176 10.6017L38.5232 10.6222L40.4528 10.096ZM41.0288 11.28L39.467 12.5294L39.4795 12.545L39.4923 12.5604L41.0288 11.28ZM44.7728 13.472L45.6581 15.2654L45.6672 15.2609L45.6762 15.2563L44.7728 13.472ZM39.0928 13.472L38.1801 15.2516L38.1937 15.2586L38.2074 15.2654L39.0928 13.472ZM37.0928 11.568L38.8116 10.5454L37.0928 11.568ZM37.8927 4.48L39.2922 5.90887L39.2923 5.90872L37.8927 4.48ZM45.9888 4.48L44.5892 5.90874L44.5967 5.91602L45.9888 4.48ZM46.7887 11.568L45.0795 10.5295L45.0747 10.5374L45.0699 10.5454L46.7887 11.568ZM41.9408 13.76C42.9951 13.76 43.8508 13.254 44.4305 12.5294L41.307 10.0306C41.3235 10.01 41.3917 9.933 41.5259 9.86356C41.6671 9.79051 41.816 9.76 41.9408 9.76V13.76ZM44.4052 12.5604C44.9032 11.9627 45.2133 11.2684 45.379 10.5392L41.4785 9.65276C41.4309 9.86227 41.3676 9.95727 41.3323 9.99963L44.4052 12.5604ZM45.369 10.5811C45.5298 9.93784 45.6048 9.27235 45.6048 8.592H41.6048C41.6048 8.97832 41.5623 9.31549 41.4885 9.61093L45.369 10.5811ZM45.6048 8.592C45.6048 7.90389 45.5305 7.23127 45.3715 6.58109L41.486 7.53091C41.5617 7.84073 41.6048 8.19211 41.6048 8.592H45.6048ZM45.3739 6.59085C45.2008 5.86691 44.8988 5.17826 44.4288 4.57671L41.2767 7.03929C41.3401 7.12041 41.422 7.26376 41.4836 7.52115L45.3739 6.59085ZM44.4528 4.608C43.9088 3.88275 43.0582 3.296 41.9408 3.296V7.296C41.7773 7.296 41.6037 7.25219 41.4537 7.16797C41.3152 7.09024 41.2552 7.01126 41.2528 7.008L44.4528 4.608ZM41.9408 3.296C40.8137 3.296 39.9737 3.9027 39.4448 4.608L42.6448 7.008C42.6449 7.00783 42.6446 7.00817 42.6447 7.008C42.6449 7.00784 42.6446 7.00817 42.6447 7.00801C42.6447 7.00802 42.6447 7.00803 42.6447 7.00805C42.6447 7.00808 42.6447 7.00813 42.6446 7.00819C42.6445 7.00832 42.6444 7.00852 42.6442 7.00877C42.6438 7.00929 42.6431 7.01006 42.6423 7.01107C42.6407 7.01309 42.6381 7.01612 42.6346 7.02003C42.6277 7.02782 42.6167 7.03941 42.6013 7.05361C42.5703 7.08222 42.5215 7.12138 42.453 7.16049C42.3026 7.24642 42.121 7.296 41.9408 7.296V3.296ZM39.4448 4.608C39.0065 5.19232 38.715 5.85565 38.5335 6.55116L42.404 7.56084C42.4785 7.27502 42.571 7.10635 42.6448 7.008L39.4448 4.608ZM38.5335 6.55116C38.3603 7.21497 38.2768 7.89712 38.2768 8.592H42.2768C42.2768 8.22021 42.3212 7.87836 42.404 7.56084L38.5335 6.55116ZM38.2768 8.592C38.2768 9.27235 38.3517 9.93784 38.5125 10.5811L42.393 9.61093C42.3192 9.31549 42.2768 8.97832 42.2768 8.592H38.2768ZM38.5232 10.6222C38.7099 11.3067 39.0114 11.9599 39.467 12.5294L42.5905 10.0306C42.5341 9.96007 42.4516 9.82399 42.3823 9.56977L38.5232 10.6222ZM39.4923 12.5604C40.0471 13.2261 40.8759 13.76 41.9408 13.76V9.76C42.0968 9.76 42.255 9.80001 42.3882 9.87016C42.4494 9.90233 42.494 9.93493 42.5231 9.95944C42.5518 9.98355 42.565 9.99942 42.5652 9.99963L39.4923 12.5604ZM43.8874 11.6786C43.3525 11.9427 42.712 12.096 41.9248 12.096V16.096C43.2495 16.096 44.5077 15.8333 45.6581 15.2654L43.8874 11.6786ZM41.9248 12.096C41.1516 12.096 40.5158 11.9441 39.9781 11.6786L38.2074 15.2654C39.3551 15.8319 40.6073 16.096 41.9248 16.096V12.096ZM40.0054 11.6924C39.5246 11.4458 39.1305 11.0815 38.8116 10.5454L35.3739 12.5906C36.0577 13.7399 36.9969 14.6449 38.1801 15.2516L40.0054 11.6924ZM38.8116 10.5454C38.5226 10.0597 38.3408 9.43319 38.3408 8.592H34.3408C34.3408 10.0335 34.6602 11.3909 35.3739 12.5906L38.8116 10.5454ZM38.3408 8.592C38.3408 7.28992 38.7147 6.47441 39.2922 5.90887L36.4933 3.05113C35.0015 4.51225 34.3408 6.43808 34.3408 8.592H38.3408ZM39.2923 5.90872C39.9142 5.29952 40.7369 4.944 41.9408 4.944V0.943999C39.838 0.943999 37.962 1.61248 36.4932 3.05128L39.2923 5.90872ZM41.9408 4.944C43.1446 4.944 43.9673 5.29952 44.5892 5.90872L47.3883 3.05128C45.9195 1.61248 44.0435 0.943999 41.9408 0.943999V4.944ZM44.5967 5.91602C45.1815 6.48289 45.5568 7.29603 45.5568 8.592H49.5568C49.5568 6.43197 48.8867 4.50378 47.3808 3.04398L44.5967 5.91602ZM45.5568 8.592C45.5568 9.42573 45.373 10.0464 45.0795 10.5295L48.498 12.6065C49.2285 11.4042 49.5568 10.0409 49.5568 8.592H45.5568ZM45.0699 10.5454C44.7548 11.075 44.3601 11.4392 43.8693 11.6877L45.6762 15.2563C46.8707 14.6515 47.82 13.7463 48.5076 12.5906L45.0699 10.5454ZM52.8478 11.824H50.8478V13.824H52.8478V11.824ZM53.5678 11.744L54.0767 13.6781L54.1097 13.6695L54.1424 13.6597L53.5678 11.744ZM54.1598 11.424L55.4312 12.9679L55.4401 12.9604L54.1598 11.424ZM54.6238 10.8L56.4419 11.6333V11.6333L54.6238 10.8ZM54.8958 9.824L52.9288 9.46168L52.925 9.48273L52.9215 9.50386L54.8958 9.824ZM54.8478 6.864L52.9074 7.34908L52.9104 7.36075L54.8478 6.864ZM54.3838 5.904L52.9007 7.24583L52.917 7.26386L52.9338 7.2815L54.3838 5.904ZM53.7118 5.44L52.9545 7.29109L53.0041 7.31139L53.0547 7.32899L53.7118 5.44ZM52.8478 5.28L52.9102 3.28098L50.8478 3.21652V5.28H52.8478ZM57.3278 4.496L55.9446 5.94064L55.9523 5.9479L57.3278 4.496ZM58.6878 10.048L56.7298 9.64009L56.7257 9.65972L56.722 9.67942L58.6878 10.048ZM58.1917 11.552L59.9885 12.4304L59.9923 12.4227L59.996 12.4149L58.1917 11.552ZM57.3118 12.816L58.726 14.2302L58.7365 14.2197L58.7469 14.209L57.3118 12.816ZM55.9678 13.68L56.6979 15.5419L56.7136 15.5358L56.7293 15.5294L55.9678 13.68ZM49.5678 13.504L48.0354 14.7892L48.0473 14.8035L48.0596 14.8176L49.5678 13.504ZM52.8478 13.824C53.2451 13.824 53.6644 13.7867 54.0767 13.6781L53.0588 9.80985C53.0658 9.808 53.0051 9.824 52.8478 9.824V13.824ZM54.1424 13.6597C54.6242 13.5151 55.056 13.2768 55.4312 12.9679L52.8883 9.88014C52.8926 9.87664 52.9047 9.86742 52.9247 9.85659C52.945 9.84563 52.9683 9.83576 52.9931 9.82835L54.1424 13.6597ZM55.4401 12.9604C55.8892 12.5862 56.2159 12.1263 56.4419 11.6333L52.8056 9.96669C52.8003 9.97838 52.8019 9.97202 52.8148 9.95459C52.8283 9.93654 52.8496 9.91237 52.8794 9.88756L55.4401 12.9604ZM56.4419 11.6333C56.6581 11.1616 56.7882 10.6484 56.87 10.1441L52.9215 9.50386C52.8753 9.78898 52.8241 9.92639 52.8056 9.96669L56.4419 11.6333ZM56.8627 10.1863C56.965 9.63059 57.0078 9.02948 57.0078 8.4H53.0078C53.0078 8.85852 52.9758 9.20674 52.9288 9.46168L56.8627 10.1863ZM57.0078 8.4C57.0078 7.68781 56.9466 6.99721 56.7851 6.36725L52.9104 7.36075C52.9622 7.56279 53.0078 7.89619 53.0078 8.4H57.0078ZM56.788 6.37893C56.636 5.77072 56.3633 5.08391 55.8338 4.5265L52.9338 7.2815C52.8667 7.21087 52.8456 7.16313 52.8511 7.17434C52.8533 7.17905 52.8606 7.19498 52.871 7.2247C52.8814 7.25436 52.894 7.29526 52.9075 7.34907L56.788 6.37893ZM55.8668 4.56217C55.476 4.13017 54.9792 3.76332 54.3688 3.55101L53.0547 7.32899C52.9994 7.30976 52.9564 7.28581 52.9274 7.26579C52.8995 7.24654 52.8917 7.23585 52.9007 7.24583L55.8668 4.56217ZM54.469 3.58891C53.9515 3.37719 53.4126 3.29667 52.9102 3.28098L52.7853 7.27902C52.8709 7.2817 52.9259 7.28907 52.9556 7.29456C52.9852 7.30005 52.9816 7.30219 52.9545 7.29109L54.469 3.58891ZM50.8478 5.28V11.824H54.8478V5.28H50.8478ZM53.3278 5.056C54.5853 5.056 55.3861 5.40586 55.9446 5.94062L58.7109 3.05138C57.2641 1.66614 55.3982 1.056 53.3278 1.056V5.056ZM55.9523 5.9479C56.4858 6.45338 56.8478 7.20514 56.8478 8.464H60.8478C60.8478 6.35219 60.1964 4.45862 58.7032 3.04409L55.9523 5.9479ZM56.8478 8.464C56.8478 8.87644 56.8074 9.26753 56.7298 9.64009L60.6457 10.4559C60.7814 9.80447 60.8478 9.13956 60.8478 8.464H56.8478ZM56.722 9.67942C56.6595 10.0129 56.5504 10.3485 56.3875 10.6891L59.996 12.4149C60.3025 11.7741 60.524 11.1071 60.6535 10.4166L56.722 9.67942ZM56.395 10.6736C56.2476 10.975 56.0735 11.2202 55.8766 11.423L58.7469 14.209C59.254 13.6865 59.6665 13.089 59.9885 12.4304L56.395 10.6736ZM55.8975 11.4018C55.763 11.5364 55.5497 11.6892 55.2063 11.8306L56.7293 15.5294C57.4738 15.2228 58.1565 14.7996 58.726 14.2302L55.8975 11.4018ZM55.2376 11.8181C54.9618 11.9262 54.6019 12 54.1278 12V16C55.0189 16 55.8857 15.8605 56.6979 15.5419L55.2376 11.8181ZM54.1278 12H50.9757V16H54.1278V12ZM50.9757 12C50.811 12 50.7672 11.978 50.8003 11.9896C50.8199 11.9965 50.861 12.0135 50.9135 12.0479C50.9672 12.083 51.0237 12.1305 51.0759 12.1904L48.0596 14.8176C48.8808 15.7605 50.0307 16 50.9757 16V12ZM51.1001 12.2188C51.2305 12.3743 51.2301 12.4686 51.2039 12.3557C51.1798 12.2519 51.1518 12.0484 51.1518 11.712H47.1518C47.1518 12.6471 47.2727 13.8799 48.0354 14.7892L51.1001 12.2188ZM51.1518 11.712V4.96H47.1518V11.712H51.1518ZM51.1518 4.96C51.1518 4.79614 51.1721 4.73188 51.171 4.73539C51.1697 4.73925 51.1621 4.76191 51.1422 4.79642C51.122 4.83168 51.0924 4.8734 51.052 4.91555C51.0115 4.95784 50.9679 4.99241 50.9259 5.01874C50.8845 5.04467 50.8519 5.05805 50.835 5.06392C50.805 5.07436 50.8401 5.056 50.9757 5.056V1.056C50.0371 1.056 48.9712 1.3054 48.1635 2.14845C47.3712 2.97548 47.1518 4.03799 47.1518 4.96H51.1518ZM50.9757 5.056H53.3278V1.056H50.9757V5.056Z" fill="#FBFDF7"/>
</g>
<defs>
<filter id="filter0_d_158_266" x="0.976013" y="0.944" width="63.8717" height="19.152" filterUnits="userSpaceOnUse" color-interpolation-filters="sRGB">
<feFlood flood-opacity="0" result="BackgroundImageFix"/>
<feColorMatrix in="SourceAlpha" type="matrix" values="0 0 0 0 0 0 0 0 0 0 0 0 0 0 0 0 0 0 127 0" result="hardAlpha"/>
<feOffset dx="2" dy="2"/>
<feGaussianBlur stdDeviation="2"/>
<feComposite in2="hardAlpha" operator="out"/>
<feColorMatrix type="matrix" values="0 0 0 0 0 0 0 0 0 0 0 0 0 0 0 0 0 0 0.2 0"/>
<feBlend mode="normal" in2="BackgroundImageFix" result="effect1_dropShadow_158_266"/>
<feBlend mode="normal" in="SourceGraphic" in2="effect1_dropShadow_158_266" result="shape"/>
</filter>
</defs>
</svg>
