<svg width="353" height="362" viewBox="0 0 353 362" fill="none" xmlns="http://www.w3.org/2000/svg">
<g filter="url(#filter0_d_68_334)">
<path d="M306.365 191.595C297.57 264.696 237.773 297.868 188.745 311.916C164.027 318.998 127.6 327.254 97.5555 314.701C67.9737 302.341 43.5004 269.232 43.9559 190.867C44.232 143.379 51.0477 115.546 67.1051 95.5477C83.2227 75.4741 108.939 62.8861 148.318 46.7469C200.075 33.4992 242.957 40.8119 271.128 65.475C299.321 90.1571 313.439 132.793 306.365 191.595Z" fill="#F5ECE9" stroke="#FBFDF7" stroke-width="5"/>
<path d="M81.2377 137.168L79.4727 109.224L91.5349 108.569C94.6503 108.4 97.0996 108.894 98.8827 110.052C100.693 111.209 101.67 112.932 101.814 115.221C101.91 116.738 101.631 118.035 100.978 119.112C100.351 120.187 99.4422 121.025 98.2509 121.623C97.0863 122.221 95.7851 122.558 94.3472 122.636L94.9657 121.642C96.7497 121.545 98.2984 121.741 99.6119 122.23C100.95 122.692 102.013 123.449 102.801 124.501C103.587 125.526 104.031 126.837 104.132 128.434C104.281 130.803 103.519 132.687 101.844 134.086C100.195 135.484 97.6136 136.279 94.0988 136.47L81.2377 137.168ZM84.0395 134.573L93.905 134.037C96.3547 133.904 98.2059 133.389 99.4585 132.493C100.709 131.571 101.277 130.192 101.161 128.355C101.047 126.545 100.311 125.263 98.9542 124.509C97.5957 123.729 95.6916 123.405 93.2419 123.538L83.0569 124.091L82.903 121.656L92.1295 121.155C94.3662 121.033 96.07 120.513 97.2411 119.595C98.4388 118.676 98.9847 117.377 98.8788 115.701C98.7712 113.998 98.0656 112.767 96.762 112.01C95.4834 111.225 93.7257 110.893 91.489 111.015L82.5821 111.499L84.0395 134.573ZM118.871 135.325C116.688 135.443 114.742 135.095 113.034 134.28C111.324 133.438 109.953 132.244 108.92 130.698C107.886 129.125 107.303 127.301 107.172 125.225C107.04 123.149 107.364 121.289 108.142 119.644C108.946 117.998 110.092 116.681 111.579 115.692C113.091 114.675 114.819 114.114 116.763 114.009C118.734 113.902 120.506 114.259 122.081 115.082C123.681 115.876 124.972 117.061 125.953 118.637C126.933 120.186 127.489 122.012 127.621 124.114C127.63 124.247 127.626 124.394 127.609 124.555C127.618 124.689 127.627 124.835 127.637 124.995L109.384 125.986L109.25 123.87L125.986 122.961L124.92 123.86C124.824 122.343 124.407 121.017 123.667 119.883C122.952 118.72 122.015 117.836 120.854 117.231C119.694 116.627 118.382 116.364 116.917 116.444C115.479 116.522 114.209 116.925 113.106 117.652C112.003 118.38 111.17 119.36 110.606 120.592C110.043 121.824 109.81 123.212 109.907 124.756L109.935 125.195C110.036 126.792 110.471 128.183 111.241 129.37C112.035 130.529 113.08 131.42 114.376 132.044C115.696 132.64 117.168 132.894 118.792 132.805C120.07 132.736 121.241 132.445 122.304 131.934C123.394 131.421 124.309 130.677 125.049 129.702L126.762 131.451C125.901 132.62 124.783 133.535 123.409 134.197C122.061 134.858 120.549 135.234 118.871 135.325ZM135.152 128.792L135.002 125.155L147.311 112.55L150.786 112.361L142.117 121.685L140.605 123.129L135.152 128.792ZM133.258 134.343L131.387 104.722L134.223 104.568L136.094 134.189L133.258 134.343ZM149.514 133.46L140.079 123.037L141.777 120.742L152.989 133.272L149.514 133.46ZM162.261 132.968C159.758 133.104 157.764 132.638 156.281 131.571C154.824 130.501 154.038 129.049 153.922 127.212C153.856 126.174 154.048 125.203 154.499 124.297C154.976 123.39 155.783 122.638 156.921 122.042C158.084 121.418 159.664 121.052 161.661 120.944L168.811 120.555L168.945 122.671L161.875 123.055C159.851 123.165 158.463 123.601 157.709 124.363C156.981 125.097 156.649 125.983 156.715 127.021C156.792 128.245 157.32 129.191 158.297 129.859C159.301 130.525 160.642 130.813 162.319 130.722C164.343 130.612 165.92 129.992 167.051 128.863C168.182 127.733 168.689 126.237 168.571 124.374L168.248 119.264C168.136 117.481 167.543 116.138 166.471 115.235C165.425 114.33 163.917 113.931 161.947 114.038C160.589 114.112 159.312 114.408 158.115 114.927C156.919 115.446 155.918 116.101 155.113 116.893L153.702 114.847C154.709 113.884 155.944 113.123 157.405 112.562C158.864 111.976 160.406 111.638 162.03 111.55C164.426 111.42 166.336 111.824 167.757 112.761C169.206 113.697 170.154 115.168 170.601 117.173L169.308 117.003C169.994 115.177 171.103 113.701 172.635 112.577C174.166 111.425 175.983 110.792 178.086 110.678C179.551 110.599 180.912 110.792 182.171 111.258C183.454 111.695 184.578 112.355 185.542 113.238C186.533 114.118 187.322 115.184 187.908 116.434C188.522 117.682 188.877 119.078 188.974 120.622C188.986 120.808 188.984 120.982 188.967 121.143C188.976 121.276 188.972 121.423 188.955 121.584L170.742 122.574L170.608 120.458L187.304 119.551L186.203 120.532C186.101 118.909 185.667 117.544 184.903 116.437C184.163 115.302 183.201 114.446 182.015 113.87C180.83 113.293 179.558 113.042 178.2 113.116C176.869 113.188 175.651 113.574 174.546 114.275C173.442 114.976 172.58 115.931 171.962 117.14C171.37 118.347 171.126 119.775 171.23 121.425L171.258 121.865C171.359 123.461 171.794 124.853 172.564 126.04C173.359 127.198 174.39 128.09 175.659 128.716C176.952 129.313 178.424 129.567 180.075 129.477C181.38 129.406 182.551 129.116 183.587 128.606C184.65 128.094 185.565 127.35 186.332 126.374L188.045 128.123C187.186 129.318 186.069 130.247 184.695 130.909C183.345 131.543 181.832 131.906 180.154 131.997C178.557 132.083 177.035 131.899 175.59 131.443C174.172 130.986 172.909 130.24 171.802 129.206C170.695 128.171 169.809 126.844 169.146 125.224L170.986 125.164C170.834 126.988 170.325 128.458 169.461 129.573C168.623 130.687 167.566 131.519 166.292 132.068C165.016 132.592 163.672 132.892 162.261 132.968ZM219.518 108.428C221.223 108.336 222.721 108.588 224.015 109.185C225.333 109.755 226.381 110.686 227.157 111.979C227.96 113.271 228.426 114.928 228.553 116.95L229.322 129.126L226.487 129.28L225.735 117.384C225.596 115.175 224.958 113.541 223.822 112.481C222.712 111.393 221.198 110.901 219.28 111.005C217.842 111.083 216.61 111.457 215.584 112.127C214.582 112.769 213.825 113.678 213.311 114.854C212.823 116.002 212.629 117.375 212.73 118.971L213.426 129.989L210.59 130.143L209.839 118.247C209.699 116.038 209.061 114.404 207.926 113.344C206.788 112.257 205.261 111.766 203.344 111.87C201.933 111.947 200.714 112.32 199.687 112.99C198.659 113.633 197.888 114.543 197.375 115.719C196.886 116.868 196.692 118.24 196.793 119.837L197.489 130.855L194.653 131.009L193.33 110.051L196.046 109.903L196.404 115.572L195.901 114.598C196.445 113.046 197.395 111.806 198.752 110.878C200.135 109.921 201.798 109.391 203.742 109.285C205.792 109.174 207.569 109.598 209.072 110.558C210.574 111.491 211.603 112.971 212.158 114.997L211.012 114.618C211.517 112.882 212.509 111.453 213.988 110.331C215.491 109.181 217.335 108.547 219.518 108.428ZM247.051 128.364C245.24 128.462 243.576 128.138 242.06 127.393C240.541 126.621 239.293 125.474 238.315 123.951C237.363 122.401 236.814 120.481 236.669 118.192C236.525 115.903 236.829 113.951 237.582 112.334C238.333 110.691 239.415 109.417 240.827 108.513C242.24 107.608 243.864 107.106 245.702 107.006C247.699 106.898 249.511 107.253 251.14 108.073C252.793 108.864 254.123 110.047 255.131 111.622C256.137 113.169 256.707 114.994 256.84 117.097C256.974 119.226 256.639 121.113 255.835 122.759C255.03 124.405 253.858 125.724 252.317 126.716C250.803 127.706 249.048 128.255 247.051 128.364ZM236.703 136.496L234.89 107.794L237.606 107.646L238.005 113.954L237.99 118.16L238.657 122.37L239.539 136.342L236.703 136.496ZM246.692 125.86C248.183 125.779 249.494 125.374 250.623 124.645C251.751 123.889 252.623 122.88 253.238 121.619C253.851 120.33 254.106 118.874 254.004 117.251C253.901 115.627 253.465 114.222 252.695 113.036C251.926 111.849 250.933 110.942 249.718 110.313C248.503 109.685 247.149 109.411 245.658 109.492C244.167 109.573 242.844 109.992 241.69 110.749C240.562 111.505 239.69 112.513 239.075 113.775C238.487 115.036 238.244 116.478 238.347 118.101C238.449 119.724 238.873 121.143 239.618 122.358C240.387 123.545 241.38 124.452 242.595 125.081C243.835 125.681 245.201 125.941 246.692 125.86ZM114.758 183.216C116.462 183.124 117.961 183.376 119.254 183.974C120.573 184.543 121.62 185.474 122.396 186.767C123.199 188.059 123.665 189.716 123.793 191.739L124.562 203.914L121.726 204.068L120.974 192.172C120.835 189.963 120.197 188.329 119.062 187.269C117.951 186.181 116.437 185.689 114.52 185.793C113.082 185.871 111.85 186.245 110.823 186.915C109.822 187.557 109.064 188.466 108.551 189.642C108.062 190.79 107.868 192.163 107.969 193.76L108.665 204.778L105.829 204.932L105.078 193.035C104.938 190.826 104.301 189.192 103.165 188.132C102.028 187.046 100.5 186.554 98.5832 186.658C97.1719 186.735 95.9531 187.108 94.9266 187.778C93.8985 188.422 93.1277 189.331 92.6142 190.508C92.1256 191.656 91.9317 193.028 92.0326 194.625L92.7285 205.643L89.8927 205.797L88.5689 184.839L91.2849 184.691L91.643 190.36L91.1406 189.386C91.6838 187.834 92.6342 186.594 93.9916 185.666C95.374 184.71 97.0371 184.179 98.981 184.073C101.031 183.962 102.808 184.386 104.312 185.346C105.813 186.279 106.842 187.759 107.397 189.785L106.251 189.407C106.756 187.67 107.748 186.241 109.227 185.119C110.731 183.969 112.574 183.335 114.758 183.216ZM144.594 202.827L144.301 198.196L144.134 197.444L143.645 189.699C143.532 187.916 142.939 186.573 141.867 185.67C140.821 184.765 139.313 184.366 137.343 184.473C135.985 184.547 134.708 184.844 133.511 185.362C132.315 185.881 131.315 186.537 130.509 187.328L129.098 185.282C130.106 184.319 131.34 183.558 132.801 182.998C134.26 182.411 135.815 182.073 137.466 181.983C140.182 181.836 142.315 182.401 143.865 183.679C145.441 184.928 146.315 186.924 146.488 189.665L147.31 202.679L144.594 202.827ZM137.377 203.419C135.806 203.504 134.419 203.326 133.215 202.884C132.037 202.414 131.113 201.743 130.443 200.871C129.772 199.973 129.398 198.925 129.323 197.727C129.254 196.636 129.445 195.638 129.895 194.732C130.37 193.798 131.177 193.033 132.315 192.437C133.478 191.814 135.058 191.447 137.055 191.339L144.284 190.946L144.418 193.062L137.269 193.45C135.245 193.56 133.856 193.996 133.103 194.758C132.376 195.519 132.046 196.431 132.114 197.496C132.189 198.693 132.716 199.626 133.693 200.294C134.67 200.962 135.998 201.25 137.675 201.159C139.273 201.073 140.622 200.639 141.721 199.858C142.846 199.049 143.631 197.938 144.076 196.526L144.838 198.447C144.393 199.86 143.531 201.015 142.252 201.912C140.999 202.808 139.374 203.31 137.377 203.419ZM162.574 202.05C160.577 202.159 158.751 201.804 157.096 200.986C155.468 200.166 154.151 198.983 153.145 197.435C152.137 195.861 151.566 194.022 151.434 191.92C151.299 189.791 151.634 187.903 152.439 186.257C153.243 184.611 154.403 183.307 155.919 182.343C157.459 181.351 159.228 180.801 161.225 180.693C163.062 180.593 164.726 180.917 166.216 181.664C167.732 182.409 168.967 183.557 169.92 185.108C170.898 186.63 171.459 188.536 171.604 190.825C171.747 193.087 171.443 195.039 170.691 196.682C169.94 198.326 168.859 199.613 167.448 200.544C166.063 201.447 164.438 201.949 162.574 202.05ZM162.615 199.525C164.106 199.444 165.416 199.039 166.546 198.31C167.7 197.553 168.572 196.544 169.16 195.283C169.773 193.995 170.029 192.539 169.926 190.916C169.822 189.266 169.385 187.847 168.615 186.661C167.872 185.473 166.881 184.578 165.641 183.978C164.425 183.35 163.072 183.076 161.581 183.157C160.116 183.237 158.82 183.654 157.692 184.41C156.563 185.139 155.69 186.134 155.075 187.396C154.46 188.658 154.205 190.114 154.309 191.764C154.412 193.387 154.849 194.806 155.62 196.019C156.39 197.205 157.382 198.113 158.598 198.741C159.811 199.343 161.15 199.604 162.615 199.525ZM170.669 201.41L170.271 195.103L170.283 190.856L169.617 186.646L168.679 171.796L171.514 171.642L173.385 201.263L170.669 201.41ZM186.129 200.771C184.398 200.865 182.745 200.715 181.17 200.319C179.594 199.898 178.343 199.338 177.417 198.641L178.554 196.336C179.447 196.928 180.574 197.428 181.935 197.834C183.295 198.214 184.707 198.365 186.172 198.285C188.169 198.177 189.588 197.793 190.428 197.133C191.266 196.446 191.652 195.584 191.587 194.546C191.538 193.774 191.247 193.189 190.714 192.791C190.207 192.365 189.546 192.067 188.734 191.897C187.92 191.701 187.016 191.55 186.02 191.444C185.025 191.337 184.028 191.205 183.029 191.045C182.057 190.884 181.159 190.626 180.335 190.27C179.51 189.888 178.821 189.351 178.27 188.66C177.745 187.967 177.445 187.022 177.369 185.825C177.297 184.68 177.552 183.638 178.134 182.699C178.716 181.759 179.603 181.003 180.796 180.431C182.014 179.831 183.515 179.482 185.299 179.386C186.657 179.312 188.027 179.424 189.408 179.723C190.788 179.995 191.936 180.4 192.851 180.938L191.757 183.281C190.785 182.693 189.758 182.295 188.676 182.086C187.592 181.851 186.518 181.763 185.453 181.821C183.562 181.923 182.185 182.332 181.322 183.046C180.483 183.733 180.096 184.582 180.16 185.593C180.21 186.392 180.49 187.004 180.998 187.43C181.532 187.855 182.207 188.179 183.023 188.402C183.863 188.597 184.768 188.748 185.737 188.855C186.732 188.962 187.716 189.108 188.69 189.296C189.689 189.455 190.6 189.713 191.424 190.069C192.273 190.396 192.96 190.907 193.485 191.599C194.034 192.264 194.345 193.168 194.418 194.312C194.495 195.537 194.216 196.62 193.581 197.562C192.971 198.477 192.029 199.222 190.756 199.799C189.508 200.347 187.966 200.671 186.129 200.771ZM210.025 199.473C208.214 199.572 206.55 199.248 205.034 198.503C203.515 197.731 202.267 196.583 201.289 195.061C200.336 193.51 199.788 191.591 199.643 189.302C199.499 187.013 199.803 185.06 200.556 183.444C201.307 181.801 202.389 180.527 203.801 179.623C205.213 178.718 206.838 178.216 208.676 178.116C210.673 178.008 212.485 178.363 214.113 179.183C215.767 179.974 217.097 181.157 218.105 182.731C219.111 184.279 219.681 186.104 219.813 188.206C219.948 190.336 219.613 192.223 218.808 193.869C218.004 195.515 216.831 196.834 215.291 197.825C213.777 198.816 212.022 199.365 210.025 199.473ZM199.677 207.606L197.864 178.903L200.58 178.756L200.979 185.063L200.964 189.27L201.63 193.48L202.513 207.452L199.677 207.606ZM209.666 196.969C211.157 196.888 212.468 196.483 213.597 195.754C214.725 194.999 215.596 193.99 216.211 192.728C216.825 191.44 217.08 189.984 216.978 188.36C216.875 186.737 216.439 185.332 215.669 184.145C214.9 182.959 213.907 182.051 212.692 181.423C211.477 180.795 210.123 180.521 208.632 180.602C207.141 180.683 205.818 181.102 204.664 181.859C203.536 182.615 202.664 183.623 202.049 184.885C201.461 186.145 201.218 187.587 201.321 189.211C201.423 190.834 201.847 192.253 202.591 193.468C203.361 194.655 204.354 195.562 205.569 196.19C206.809 196.791 208.175 197.05 209.666 196.969ZM225.459 198.435L224.135 177.477L226.971 177.323L228.294 198.281L225.459 198.435ZM225.28 172.768C224.694 172.8 224.189 172.627 223.765 172.249C223.34 171.872 223.11 171.404 223.075 170.845C223.039 170.286 223.21 169.809 223.585 169.415C223.96 168.994 224.44 168.768 225.025 168.736C225.611 168.704 226.116 168.864 226.539 169.215C226.962 169.565 227.191 170.02 227.226 170.579C227.263 171.165 227.094 171.668 226.72 172.089C226.373 172.508 225.893 172.735 225.28 172.768ZM235.386 197.896L233.515 168.275L236.351 168.121L238.222 197.742L235.386 197.896ZM253.674 197.103C251.677 197.211 249.851 196.857 248.196 196.039C246.568 195.219 245.251 194.035 244.245 192.488C243.237 190.913 242.666 189.075 242.534 186.973C242.399 184.844 242.734 182.956 243.539 181.31C244.343 179.664 245.503 178.359 247.019 177.396C248.559 176.404 250.328 175.854 252.325 175.746C254.162 175.646 255.826 175.969 257.316 176.716C258.833 177.462 260.067 178.61 261.02 180.16C261.998 181.683 262.559 183.588 262.704 185.877C262.847 188.139 262.543 190.092 261.791 191.735C261.04 193.378 259.959 194.665 258.549 195.596C257.163 196.5 255.538 197.002 253.674 197.103ZM253.715 194.577C255.206 194.496 256.516 194.091 257.646 193.362C258.8 192.605 259.672 191.596 260.26 190.336C260.874 189.048 261.129 187.592 261.026 185.968C260.922 184.318 260.485 182.9 259.716 181.713C258.973 180.525 257.981 179.631 256.741 179.031C255.525 178.402 254.172 178.129 252.681 178.21C251.217 178.289 249.92 178.707 248.792 179.462C247.663 180.191 246.791 181.187 246.176 182.449C245.561 183.71 245.305 185.166 245.409 186.816C245.512 188.44 245.949 189.858 246.72 191.071C247.49 192.258 248.482 193.166 249.698 193.794C250.911 194.396 252.25 194.657 253.715 194.577ZM261.769 196.463L261.371 190.156L261.383 185.909L260.717 181.699L259.779 166.849L262.614 166.695L264.485 196.316L261.769 196.463ZM132.488 272.583L130.617 242.962L133.452 242.808L135.323 272.429L132.488 272.583ZM150.975 271.779C148.951 271.889 147.099 271.536 145.417 270.719C143.761 269.874 142.416 268.679 141.383 267.133C140.349 265.56 139.766 263.736 139.635 261.66C139.502 259.557 139.851 257.682 140.683 256.035C141.514 254.387 142.699 253.068 144.24 252.076C145.78 251.085 147.576 250.533 149.626 250.422C151.703 250.309 153.569 250.662 155.224 251.48C156.905 252.296 158.249 253.479 159.255 255.026C160.288 256.572 160.871 258.397 161.004 260.499C161.135 262.575 160.786 264.45 159.956 266.124C159.152 267.77 157.967 269.103 156.401 270.123C154.834 271.116 153.025 271.668 150.975 271.779ZM150.816 269.264C152.334 269.182 153.658 268.776 154.787 268.047C155.915 267.292 156.773 266.284 157.362 265.023C157.975 263.735 158.23 262.279 158.128 260.655C158.024 259.005 157.587 257.587 156.817 256.4C156.074 255.212 155.096 254.317 153.882 253.716C152.667 253.087 151.314 252.814 149.822 252.895C148.331 252.976 147.022 253.394 145.894 254.15C144.764 254.878 143.892 255.874 143.277 257.136C142.662 258.398 142.407 259.853 142.511 261.504C142.613 263.127 143.05 264.545 143.822 265.759C144.591 266.945 145.584 267.853 146.799 268.481C148.013 269.083 149.352 269.344 150.816 269.264ZM168.551 265.177L168.402 261.54L180.711 248.934L184.186 248.745L175.517 258.069L174.005 259.513L168.551 265.177ZM166.658 270.727L164.787 241.106L167.622 240.952L169.493 270.573L166.658 270.727ZM182.914 269.844L173.478 259.421L175.177 257.126L186.388 269.656L182.914 269.844ZM202.597 268.775L202.305 264.145L202.137 263.393L201.648 255.648C201.535 253.865 200.943 252.522 199.87 251.619C198.825 250.714 197.317 250.315 195.346 250.422C193.988 250.496 192.711 250.793 191.515 251.311C190.319 251.83 189.318 252.486 188.513 253.277L187.101 251.231C188.109 250.268 189.343 249.507 190.804 248.947C192.264 248.36 193.819 248.022 195.469 247.932C198.185 247.785 200.319 248.35 201.869 249.628C203.444 250.877 204.318 252.873 204.491 255.614L205.313 268.628L202.597 268.775ZM195.381 269.368C193.81 269.453 192.422 269.275 191.219 268.833C190.04 268.363 189.116 267.692 188.446 266.82C187.775 265.922 187.402 264.874 187.326 263.676C187.257 262.585 187.448 261.587 187.898 260.681C188.374 259.747 189.181 258.982 190.318 258.386C191.481 257.763 193.061 257.396 195.058 257.288L202.288 256.895L202.421 259.011L195.272 259.399C193.248 259.509 191.86 259.945 191.106 260.707C190.38 261.468 190.05 262.38 190.117 263.445C190.193 264.642 190.719 265.575 191.696 266.243C192.674 266.911 194.001 267.199 195.679 267.108C197.276 267.022 198.625 266.588 199.725 265.807C200.849 264.998 201.634 263.887 202.079 262.475L202.842 264.396C202.397 265.809 201.534 266.964 200.255 267.861C199.003 268.757 197.378 269.259 195.381 269.368ZM212.217 268.253L210.346 238.632L213.182 238.478L215.053 268.099L212.217 268.253ZM228.904 267.547C226.934 267.654 225.383 267.204 224.25 266.198C223.118 265.191 222.49 263.716 222.368 261.773L221.125 242.093L223.96 241.939L225.193 261.46C225.271 262.684 225.637 263.612 226.291 264.244C226.972 264.875 227.898 265.158 229.07 265.095C230.322 265.027 231.337 264.611 232.117 263.848L233.245 265.829C232.717 266.365 232.062 266.775 231.278 267.058C230.521 267.339 229.73 267.502 228.904 267.547ZM217.811 249.283L217.663 246.927L230.643 246.222L230.792 248.578L217.811 249.283Z" fill="#EBA7A2"/>
</g>
<defs>
<filter id="filter0_d_68_334" x="33.4493" y="29.7355" width="289.22" height="305.966" filterUnits="userSpaceOnUse" color-interpolation-filters="sRGB">
<feFlood flood-opacity="0" result="BackgroundImageFix"/>
<feColorMatrix in="SourceAlpha" type="matrix" values="0 0 0 0 0 0 0 0 0 0 0 0 0 0 0 0 0 0 127 0" result="hardAlpha"/>
<feOffset dx="2" dy="2"/>
<feGaussianBlur stdDeviation="5"/>
<feComposite in2="hardAlpha" operator="out"/>
<feColorMatrix type="matrix" values="0 0 0 0 0.921569 0 0 0 0 0.662745 0 0 0 0 0.639216 0 0 0 0.4 0"/>
<feBlend mode="normal" in2="BackgroundImageFix" result="effect1_dropShadow_68_334"/>
<feBlend mode="normal" in="SourceGraphic" in2="effect1_dropShadow_68_334" result="shape"/>
</filter>
</defs>
</svg>
